<?xml version="1.0" encoding="UTF-8"?>
<svg id="uuid-3e3eebd2-57ab-42dd-af12-20cf10f0d904" data-name="Layer 1" xmlns="http://www.w3.org/2000/svg" viewBox="0 0 151.725 150.931">
  <path d="M19.875,86.38c-.318.685-.342,1.242-1.027,1.777-.198.156-.373.02-.522.071-.372.129-.779.363-1.157.506-.378.143-.695-.029-.943.408-.183.325-.167.758-.265,1.11-.04.151-.236.214-.268.336-.023.091.407,1.346.359,1.864-.016.191-.182.34-.188.537-.005.096.172.206.14.317-.054.173-.455.744-.597.912-.105.12-1.396,1.204-1.491,1.222-.084.015-.576-.181-.749-.176l-.024-.288c-.184.431-1.022-.473-1.112-.725-.015-.043-.103-.778-.111-.892-.06-1.104.27-2.411.424-3.453.28-1.88.292-3.241.049-5.065-.08-.61-.112-1.427-.67-1.787-.356-.228-.851-.565-1.185-.765-1.38-.831-2.598-.484-4.05-.711-.604-.094-1.334-.714-1.541-.723-.062-.002-.188.145-.336.139-.36-.012-.479-.014-.83-.006-.691.014-1.382.001-2.072.02C.865,80.468.174,79.615,0,78.639c.472-.777,1.077-1.01,1.804-1.389.143-.075.266-.31.396-.366.064-.027.582.267.518-.142-.007-.045-.48-.277-.439-.778.022-.289.489-1.257.681-1.495.395-.496,1.213-.129,1.388-.341.115-.141.02-.495.079-.654.186-.473,1.006-1.402,1.447-1.672.128-.078.224.092.325.082.072-.008.139-.173.26-.191.277-.041.454-.009.727-.005-.102-.338.019-.914.215-1.187.023-.036.545-.581.591-.62.588-.505,1.719-.262,2.235.289.214.229,1.005,1.296,1.191,1.579.232.349.823,2.028.933,2.104.077.056.834.387.927.402.365.06,1.639-.691,2.025-.631.328.05.566.325.93.33l-.091.473c.178.192.298-.068.288-.19-.006-.068-.236-.09-.097-.219.12.21.52.292.621.394.08.079-.197.324.394.388l-.166.275c.744.34.54,1.145,1.25,1.477.089-.011,1.028-1.082,1.24-1.232.202-.139.494-.11.762-.275.54-.336.601-.603,1.267-.936.167-.084.492-.339.627-.345.298-.013,1.322.485,1.715.297.306-.356.576-.867.936-1.171.097-.081.886-.363.991-.35.703.082,1.123.851,1.515,1.289l1.162-.591c.422.318.445.121.683.137,1.139.081,2.83.309,3.824-.301.47-.288.369-.428,1.115-.539.677-.098,1.035.083,1.614.161,1.419.189,3.23-.913,4.49-.662.154.03.28.131.419.196.242-.543.325-.238.623-.255.668-.039.796-.141,1.537.077.135.038.57.28.808.35.057.016.727-.175.981-.132.48.079.976.451,1.367.575.099.033.153-.073.188-.145l.025.281c.964-.088,1.783.582,2.322,1.346.572.812.458,2.87,1.112,3.482.121.115.256.208.402.288.446-.808.179-1.666.196-2.533.004-.144.173-.281.183-.441.016-.273-.316-1.853-.468-2.002-.204-.195-.528-.219-.62-.301-.092-.083.029-.271-.007-.338-.067-.128-.38-.246-.534-.43-.166-.198-.227-.574-.434-.819-.425-.507-1.211-.979-1.72-1.464-1.114-1.059-2.022-2.175-3.015-3.263-.722-.788-1.583-1.884-2.253-2.741-.052-.068-.078-.475-.248-.707-.47-.641-1.58-2.495-1.563-3.267.021-.933-.033-1.335-.101-2.322-.055-.804.128-2.543-.417-3.126-.294-.314-1.618-1.27-1.721-1.468-.068-.132.053-.392.017-.578-.296-1.554-.173-3.293-.517-4.892-.121-.568-.519-.873-.553-1.024-.051-.24.034-1.881.112-2.12.594-1.775,3.041-3.822,4.948-4.107,1.878-.28,4.525.089,6.339.479,1.527.33,1.901.385,3.424.447,1.006.041,1.439.39,2.333.733,1.019.39,1.073.012,2.019-.053l.972-1.261.236.062c-.145-.586.379-.731.668-1.122.681-.916,1.51-1.737,2.143-2.711.138-.215.192-.626.292-.777.029-.046.17.054.247.001,1.33-.93,2.878-.706,4.035-1.443.956-.611,1.478-1.577,2.487-2.093.331-.17,1.39-.633,1.721-.714.146-.036.267.13.381.067.137-.076.228-.29.432-.388.309-.146.972-.1,1.272-.211.907-.336,2.501-1.281,3.04-2.069.229-.337.372-.974.603-1.34.566-.908,1.416-1.961,2.042-2.834.319-.443.589-.92.997-1.327l.335.133.083-.335c.27.163.452-.055.644-.085.848-.132,2.245-.069,2.886-.595.976-.802.806-1.912,1.723-2.799.067-.066.219.062.247.012.692-1.198,3.056-2.348,4.326-3.058.103-.056,1.469-.425,1.575-.429.956-.036,2.222.879,3.302.968.635.052.847-.258,1.401-.395.553-.136,1.433-.346,1.874.048l.244-.365c1.125.56,1.744.387,2.611-.393.861-.777.767-1,1.172-1.987.488-1.189.617-2.026,1.003-3.164.261-.773,1.274-2.419,1.065-3.179-.232-.836-.888-1.756-1.138-2.569-.053-.181.017-.435.009-.455-.011-.027-.404-.071-.572-.239-.058-.058.037-.201.027-.218-.049-.072-.348-.015-.519-.437-.493-1.207.816-1.888,1.673-2.361.975-.541,2.22-1.218,3.286-1.51.202-.055.883-.225,1.036-.178.412.124,1.796.965,2.161,1.262.364.298.66.729,1.043,1.025.5.384,1.219.68,1.675,1.061.111.092.231.28.552.54,1.189.968,2.02,2.106,2.917,3.377.136.196.576.695.667.89.047.098-.125.295-.072.434.03.08.217.125.228.251.007.104-.379,1.15-.427,1.535-.055.428.163,1.292.136,1.561-.025.243-.455,1.207-.433,1.272.401.28.906.562,1.029,1.07l.229-.242.394.241c.087-.458,1-1.648,1.41-1.726.094-.019.4.154.582.178.781.111.946.206,1.666.688.274.185.504.687.689.321l.188.12c-.043.068-.111.151-.043.228.633.749,1.474.953.905,2.114-.445.91-1.38,1.81-1.925,2.646-.663,1.02-.217,2.122-.616,3.205-.135.366-1.183,1.712-1.529,1.783-.298.064-.844-.21-1.178-.158-.211.032-.292.215-.421.234-.12.016-.527-.105-.81-.082-.382.028-.484.365-.877-.026-.173.608-1.092.149-1.279.697l.134.243-.312.246-.125-.186c-.373.477-1.453.072-1.715.118-.151.026-1.009.638-.969.807l.441.272-.13.325.313-.065c-.298.65.17,1.15.261,1.675.092.525.006,1.185.199,1.666.544,1.348,2.121,2.456,1.771,4.07l.635-.646.288.174c-.016-.433.509-.822.875-.506l-.016-.405.296.189c.004-.515.339-.243.63-.329.539-.163,1.932-.375,2.513-.262.223.044.254.227.351.258.03.009.548-.123.573-.107.231.148.849.645,1.059.847.113.11,1.163,1.435,1.24,1.563.117.194.038.361.087.56l.216-.128c.249,1.014,1.383.595,1.945.147.37-.297.62-.849.961-1.117.085-.065.17,0,.237.056l-.106-.265c.278.028.39-.285.538-.35.576-.254,1.455-.121,2.131-.278,1.059-.246,1.715-.449,2.899-.362.23.017.763.233.892.175.252-.118.655-.782.791-1.05.461-.914.588-2.211,1.101-3.19.45-.859,1.54-1.452,1.484-2.553l.256.031c-.054-.13-.363-.631-.368-.668-.026-.174.32-.357.022-.786-.431-.623-.644-.252-.701-.278-.493-.23-.206-.513-.226-.641-.02-.129-.231-.291-.284-.484-.188-.678-.155-.889.33-1.427.233-.26,1.37-1.153,1.676-1.311.254-.133.673-.213.954-.173.148.023,1.225.306,1.33.357.162.073.249.268.41.331,1.476.576,2.384.636,3.513,1.893.577.645.784,1.066,1.624,1.566.992.587,2.309,1.085,3.326,1.715.421.259,1.655,1.576,1.795,1.993.034.103-.063.497-.039.703.111.97.04,1.677-.314,2.618-.181.48-.835,1.471-.86,1.88-.007.122.108.212.113.325.034.532-.083.655.385,1.161.551-.587,1.401-2.573,2.182-2.655,1.035-.111,2.386.733,2.554,1.746.019.114-.109.271-.057.382.063.139.292.201.332.304.019.053-.019,1.03-.033,1.116-.174,1.008-.975,1.514-1.702,2.115.253.505.341,1.025.091,1.542l.314-.065-.301.471.328.094c.187,1.978-.442,2.951-2.3,3.629-.967.352-2.105.502-3.133.618-.36,1.033-.647,1.775-1.727,2.231-.954.404-1.7-.182-2.815.099-.694.173-1.395.463-1.617,1.213-.035.117.191.16.218.251.379,1.39.596,1.62,1.222,2.845.088.172.162.349.176.542-.457.97-1.189,1.435-2.18,1.791.125.196.43.343.542.494.153.203.623,1.838.609,2.115-.032.613-.52,1.635-.887,2.132-.535.72-2.358,1.896-3.288,1.877-.401-.008-.672-.164-.911-.178-.184-.012-.74.184-.991.18-.662-.015-1.039-.596-1.543-.902-.469-.283-1.126-.488-1.583-.89l-.422.533c1.645,1.842-.535,4.012-2.579,3.729-.001.405.637.571.754.748.074.112.047.319.134.47.436.749.584.976.5,1.875-.064.691-.413,1.888-.815,2.44-.323.444-.868.715-.944,1.326.586.215,1.409,2.117,1.306,2.582-.09.406-.044.2-.081.585-.028.292-.181.504-.198.701-.052.634,1.772,1.743,2.142,2.285.144.211.049.372.083.434.176.327.563.346.599,1.074.014.271-.114.438-.11.597.011.33.338.638.238,1.435-.078.597-.658,1.867-.599,2.239.013.08.345.527.42.598.202.187.807.163.231.567.615.431.269.601.278.974.015.551.116,1.099-.103,1.674-.205.536-1.676,1.947-2.178,2.351-.804.643-2.703,1.349-3.755,1.629-1.282.341-2.763.044-4.048-.261-.202.099-.269.403-.452.545-1.567,1.231-4.223,2.787-6.206,2.91-1.555.095-3.249.003-4.79-.333-.372-.081-2.861-.73-3.029-.831-.183-.107-.233-.193-.254-.404-.259.256-.712-.163-.999-.377-.444-.328-1.354-1.165-1.766-1.558-.027-.024.022-.432-.432-.507-.057.399-.966.788-1.027.977-.05.155.117.385.099.564-.118,1.222-1.148,2.534-1.48,3.738-.033.125.303.217-.119.407.572.72.245,2.175.574,2.886.598,1.298,1.483,2.354,2.095,3.702.037.085-.036.239-.01.286.094.179.447.174.631.322.084.067,1.17,1.32,1.249,1.439.025.033-.017.309.171.379l-.558.426-1.039-.518c-.022.31-.239.545-.303.838-.028.121.163.772.358.59.209-.2-.255-.292-.199-.518.468-.477.605-.532,1.223-.222l-.182.285.463.027c-.036.637,1.056.757,1.375,1.414.124-.316.315-.571-.089-.724.254-.154.568-.185.828-.002l-.21-.533.436-.252-.391-.25-.309.35-.77-.38c.108-.584.327-.556.866-.504.407.039.731.167,1.082.198.351.031.819-.297,1.226.055l.182-.241c.37.376.513.148.682.16,3.769.283,7.845,1.249,9.713,4.942.077.155-.016.361.026.445.089.18.465.328.413.696.071.043.245-.156.335-.149.33.02,1.061.297,1.401.477.71.372,1.304.745,2.012,1.473,1.266,1.3,1.996,3.38,2.364,5.086.015.071-.119.203-.104.257.035.104.327.24.433.433.051.091-.009.284.051.417.39.859,1.417,1.546,2.266,1.936.851-.303,1.421-1.09,2.403-1.057l.123.344c.238-.461.988-.192,1.343.059l.022-.249,1.144.47c.181.136.434,1.04.494,1.3.258,1.142.182,2.145-.599,3.086-.37.445-.815.412-1.018,1.188-.059.231.833.72.9.725.033.004.543-.147.614-.176.448-.187,1.047-.559,1.488-.73.3-.115,1.013.073,1.296.227,1.179.631,1.104,1.108,1.826,1.77.233.214,1.684,1.526,1.792,1.572.189.08.791.162,1.06.242.55.168,1.383.561,2.021.482.092-.012.202-.078.253-.158l.072.312c.061-.084.139-.201.234-.239,1.17-.487,3.141-.581,4.181.301.106.088.549.627.554.719l-.3.342.549.218c-.31,1.181-1.059,1.883-2.1,2.477-1.04.594-1.779.264-2.758.452-.327.063-.472.229-.713.303-.39.118-.468-.224-.723.457l.346.221-.238.25,3.297,2.374c-.062.345.126.207.272.365.704.767,1.4,1.712,1.254,2.796-.208,1.539-.921,2.202-2.494,1.734-.025.199.559.766.492,1.152-.099.57-.938,1.892-1.581,1.93-1.049.061-2.26-1.084-2.927-1.787-.135-.141-.275-.353-.529-.625-.907-.958-1.332-1.475-2.384-2.41-.149-.132-.276-.425-.396-.491-.025-.016-.304.204-.468-.02l-.098.121c-.15.234-.403,1.288-.366,1.56.051.373.531,1.048.673,1.428.27.717.405.902.672,1.512.109.25.362,1.218.352,1.494-.038,1.086-.379,1.957-1.496,2.339-.836.285-1.839-.543-2.194-1.27-.188-.386-.433-1.24-.611-1.685-.483-1.201-1.013-2.333-1.022-3.605l-1.039-1.458c-.378.701-.497,1.688-1.3,2.032l.142.22c-.468.119-.704.659-1.005.848-.484.303-1.296.435-1.874.654-.435.167-.478.511-1.173.298-.582-.178-.656-.205-1.236-.321-.804-.157-1.454-1.09-1.753-1.799-.057-.359.488-1.536.725-1.797.456-.504,1.397-.318,1.748-.679.206-.212,1.035-1.479,1.13-1.783.416-1.297-.646-1.118-1.37-1.792-.215-.199-.318-1-.667-1.216.218-.242.07-.568.175-.903.261-.851.785-1.874,1.458-2.462.393-.344,1.325-.531.776-1.362-.303-.455-.219.099-.54-.178l.073-.219c-.362-.085-.619.172-.82.221-.793.191-.537.15-1.087.452-.409.225-.904.518-1.347.647-.677.197-2.194.172-2.702-.37-.171-.181-.162-.532-.391-.747-.37-.345-.818-.384-1.131-.597-.71-.485-1.878-1.647-2.284-2.4-.099-.186-.08-.603-.179-.813-.383-.816-1.197-.598-1.734-1.333-.107.35-.435.184-.525.219-.023.009-.06.237-.271.368-.184.117-.591-.021-.701.008-.807.212-1.64.588-2.542.723-1.592.235-2.556.139-3.942-.825-.369-.257-.433-.505-.665-.694-.512-.42-1.118-.776-1.584-1.285l-.164.484c-.384-.113-.192.112-.357.276-.387.385-2.186,1.352-2.752,1.321-.26-.013-.488-.176-.668-.172-.732.018-1.615.339-2.257-.542l-.213.123-1.594-1.683c-.111.003-1.386.87-1.631.999-.133.069-.325-.023-.366-.003-.042.021-.022.211-.139.283-1.355.832-6.491.223-7.825-.729l-.888-1.511c.842.484,1.269-.465.269-.604l-.367.541c-.192-.17-.441-.537-.396-.784-.351-.054-1.168.737-1.451.876-.804.395-3.913.279-4.707-.097-1.068-.506-.996-1.11-1.646-1.846-.501-.569-1.335-1.078-1.817-1.693-.559-.711-.905-1.777-1.313-2.532-.053-.099-1.324-1.691-1.408-1.765-2.188-1.937-6.908-3.4-9.738-4.444-.897-.332-2.553-.731-3.263-1.124-1.192-.66-1.579-.652-2.751-1.123-1.83-.735-3.63-1.886-5.429-2.515-1.379-.484-2.117-1.789-2.987-2.162-.343-.148-1.304-.109-1.81-.269-.728-.231-3.305-1.494-3.769-1.978-.04-.043-.301-.744-.539-.975-.211-.206-.507-.307-.712-.517-.538-.545-1.654-1.589-2.027-2.144-.487-.73-.134-1.519-.147-2.195-.013-.621-.145-1.441-.219-2.094-.059-.521.13-1.132-.34-1.535-.081.299-.554.214-.572.243-.059.092-.026.273-.141.403-.263.301-1.229.524-1.431-.01l-.213.123c-.33-.446-.868-.62-1.198-1.076-.278-.382-.273-1.104-.334-1.211-.094-.169-.401-.141-.282-.476-.612.034-1.302-.649-1.885-.936-1.263-.627-2.617-.537-3.719-.99-.868-.355-1.668-.883-2.579-1.061-.359-.069-.245.112-.384.17-.092.04-.244-.054-.283-.038-.052.021,0,.242-.091.303-.013.009-.175-.074-.299-.007-.355.185-.648.61-.964.286l-.059.092c.303.122.122.323-.1.443-.222.12-.282-.078-.397-.087-.015,0-.028.193-.137.263-.501.319-1.781-.407-2.306-.631l-.034-.294c-.472.389-1.12-.127-1.575-.343l.082-.128c.397.108.213-.15.257-.186.112-.092.429-.356.512-.391.179-.076.343.308.459-.05-.325-.282-.661-.314-1.061-.28.012-.146.117-.344-.015-.408l-.311.458-.286-.176c-.152.652-.128.327-.451.335-.511.01-1.088.148-1.643-.071l-.111.726.593.243.079-.344.649.283c-.155.159-.275.464-.423.662-.006.01-.195.001-.218.126l.196.125-.003-.002ZM15.78,86.954l.24.055.188-.183.808.786.361-.565.293.188c.267-.197-.086-.252-.047-.363l.09-.14c.322.199.426-.092.501-.347l-.334-.135c-.075-.215.417-.625-.457-.572l.375.458-.522.844-.1-.595c-.165-.051-.37.38-.586.16l.174.374-.93-.595c-.114.233.249.39-.057.631l.003.002ZM13.596,84.348l.279.188c.256-.18-.073-.289-.048-.361.117-.344.45-.002.497-.346.037-.262-.356-.52-.589-.581l.57-.565c-.327.07-.689.42-.802.719-.039.105.342.719.095.946ZM9.975,80.215c.052.118-.092.36.07.531.439.186.76.098,1.065.562l.053-.64-.611-.111-.257-.566-.083.345-.43-.405c-.138.15.136.162.192.286l.002-.002ZM18.369,85.287l-.009.655.361-.565-.353-.089ZM41.616,96.295l.06-.094c-.083-.009-.103.023-.06.094ZM18.586,78.904c.453.297.328-.298.173-.485l.734.139-.146-.461-.222-.04.084-.348c-.416.347-.687.643-.625,1.193l.003.002ZM53.134,96.74c.394.279-.091.694.161,1.036.541-.172.57-.476.757-.973l-.803-.248-.117.184.003.002ZM42.383,90.178c.083.179-.093.488.455.648.156-.503.301-.913.687-1.29l-.466-.564-.218.126-.153-.629-.261.63.258.237c-.209.278-.432-.137-.528.268-.073.307.114.335.225.576v-.002ZM29.994,80.484c-.026.62.335.289.462.306.072.009,1.274.284,1.173-.06-.594-.414-1.025-.237-1.634-.245ZM33.52,82.736c.363.256.837.647,1.145.143l-.554-.637-.59.491-.002.002ZM31.06,79.28l.723.35.101-.804c-.133-.228-.397-.24-.62-.318l-.203.776v-.004ZM27.673,76.589s.174.237.239.234l.116-.392c.312.567.809.48,1.263.157-.214-.698-.244-.282-.443-.307-.422-.052-.864-.317-1.286-.414-.098.169.191.303.247.492.037.129-.143.212-.136.229ZM33.719,79.404l-.083.345.473-.541c-.293-.851-.475-.494-.842.04l.451.156ZM28.635,76.024l.06-.094c-.083-.009-.103.023-.06.094ZM134.143,142.702l.196.125.058-.092-.195-.125-.059.092ZM87.912,113.134c.265.221.617.201.932.266-.056-.353-.323-.571-.63-.737l-.302.471ZM106.797,122.598c.03.074-.15.18.026.235.159-.341.395.157.704-.078l.382.109c-.091-.089-.409-.156-.352-.321.056-.165.277-.19-.053-.337l-.136.312c-.329-.054-.565-.167-.73-.467l-.181.283c.183.035.269.083.34.265ZM57.346,90.304c.006.096-.082.189-.131.271.046.244.89-.745.958-.851-.338-.101-.695-.819-.967-.428-.215.308.122.721.141,1.006l-.002.002ZM38.488,77.151l-.109.706c.655.357.972.016.647-.631l-.538-.075ZM132.702,138.056l.232.074.488-.532.288.174c.121-.393.123-.429-.144-.753l-.091.469-.782-.5c-.144.13.142.152.099.281-.049.143-.197.269-.264.413l.228.085-.053.293v-.004ZM132.015,137.617l.193.123c.169-.171.382-.215.254-.502l-.447.378ZM131.775,136.799l.06-.094c-.083-.009-.103.023-.06.094ZM133.747,137.924l.196.125.12-.188-.195-.125-.121.188ZM132.338,136.89c.283.27.574-.324.715-.472l-.293-.188-.422.66ZM131.797,136.013c-.014-.039.176-.16.073-.219l-.269.094c.05.049.184.094.196.125.012.035-.21.383.112.47.246-.224-.086-.389-.112-.47ZM89.78,105.931c.22.451.87.175,1.19.05l.09-.14c-.345-.068-.223-.551-.256-.566-.182-.065-.702.031-.837-.028-.176-.078-.219-.48-.572-.471-.073.219.314.245.432.528.087.212-.071.57-.047.627ZM51.168,81.254c.233.265.309-.112.529-.043.156.049.354.352.684.267l.029-.227.391.25.205-.536.008.236.257.195.871-.699-.323-.142.352-.439c-.565.292-.559.123-1.013-.25l.077.311c-.21-.185-.273.074-.447.119-.351.096-.78-.179-.804.545-.379-.358-.612.095-.815.412ZM104.014,109.493l-.047.212c.686.166,1.414.254,1.753-.469-.447-.429-.692-.681-1.3-.437l-.223-.408-.314.252.168.185-.631.124c.256.136.38.175.33.456l.266.082-.002.002ZM102.787,108.347c.02.068-.047.151.002.185.388.255.707.313.947-.106.654-1.134-1.397-1.54-.951-.077l.002-.002ZM57.47,78.663c-.052.198-.333.437-.125.819.483.227.554-.109.588-.124.039-.016.162.056.228.02.282-.153.426-.5.214-.765l.347-.112-.403-.138c.11-.348-.255-.391-.516-.585-.114.233-.357.459-.439.693-.027.075.112.167.106.187v.007ZM100.228,104.957c-.573.448-.013,1.224.457,1.583l.716-.672-.113-.933c-.209.029-.49-.14-.629-.144-.023-.002-.411.152-.43.164v.002ZM64.53,81.783c.142.574.821.208.923-.217l.237.066-.125-.219.268-.22c-.426-.351-.631.087-.854-.25l-.239.031c-.138.116-.256.633-.214.81h.004ZM74.676,87.114l.06-.094c-.083-.009-.103.023-.06.094ZM74.969,86.767c.29.281.277-.129.457-.283.069-.058.213.054.275-.005.155-.149.241-.421.382-.597l-.655-.065-.461.948.003.002ZM106.385,105.399c-.322.26-.046.454.201.669.085.055.759-.059.742-.199-.206-.312-.409-.289-.745-.343l.121-.188c-.267-.235-.197-.034-.316.063l-.003-.002ZM59.131,75.708c.88.955,1.294-.565.504-.484-.299.03-.266.371-.504.484ZM110.56,106.207c.156-.254-.477-.469-.526-.459-.05.012-.255.498-.706.331-.049-.272-.069-.633-.152-.89s-.445-.244-.019-.676l-.283.099-.364-.38-.169.689-.028-.293c-.389-.171-.705-.056-.417.343l-.345.109c.332.165.391.206.338.553l-.285.015.29.192-.615.532.631.063c-.047-.265.382-.559.381-.597.003-.07-.328-.282-.096-.473.348.328.59.575,1.075.688l-.253.502c.546-.076-.096-.132.193-.407l.564.091c-.13.38.935,1.068,1.148.469.147.063.311.083.453.153.182-.329-.261-.31.264-.628-.434-.25-.662-.225-.76-.751l-.3.281c.233.217-.031.392-.025.443h.006ZM104.566,103.46c-.238-.279-1.068.229-.334.562l.376-.158c-.005-.075-.029-.386-.043-.402v-.002ZM46.076,66.811c.086.164,1.753.706,1.708.313-.333-.23-.303-.531-.336-.878-.371.205-1.292-.162-1.104-.56l-.179-.128c-1.259.577-.284.472-.095.794.093.158-.025.409.002.461h.004ZM106.971,105.24l.061-.094c-.083-.009-.103.023-.061.094ZM76.423,85.57l.331.344.301-.471c-.016-.146-.66-.034-.632.127ZM45.363,65.838c.139-.003.031-.164.019-.25-.138,0-.035.155-.019.25ZM110.265,107.21c.14-.003.031-.164.019-.25-.138,0-.035.154-.019.25ZM106.688,104.926l.196.125.12-.188-.195-.125-.121.188ZM77.834,84.872l-.442.044-.104.808c.177-.581.515-.331.906-.544l-.226-.083c.072-.141.212-.266.263-.411.041-.114-.301-.192-.039-.375.347.419.598.546.994.159l.363.311.25-.368.289.178.019-.461-.583-.165.023-.251-.563.433c-.2-.427-.618-.116-.887.1l-.17-.374-.091,1.004v-.004ZM107.37,104.831l.061-.094c-.083-.009-.103.023-.061.094ZM107.135,104.548l.06-.094c-.083-.009-.103.023-.06.094ZM80.218,86.69c.004.06-.212.198-.159.409.131.54.852.463,1.044.003l-.98-.627c-.142.127.091.15.096.215ZM107.705,103.983l-.144.439.096.061.338-.314-.293-.188.003.002ZM109.728,105.675l.06-.094c-.083-.009-.103.023-.06.094ZM118.934,109.299c-.016.085-.132.167-.06.299l.347.307.034.4c.179-.461.071-.718-.323-1.003.012-.057.149-.127.07-.235l-.475-.423.076.56c.026.054.25.041.329.098l.002-.002ZM115.911,106.038c.153.009.338.09.512.062l-.388.606.161.174.658-.372.072.312c.539-.377-.33-1.008-.77-.949-.139.017-.232.168-.246.169-.168.002-.51-.568-.762-.599l-.655.224.297.126c-.017-.171.006-.258.163-.094.193.206.035.353.164.5.113-.176.571-.169.793-.157v-.002ZM114.19,105.067l.293.188.121-.188-.355-.091-.059.092ZM99.014,94.697c.053.061.205.111.298.225.344.428.492,1.02.968,1.249l-.271-.439.339-.314c-.127-.289-.391.169-.414,0-.02-.156.18-.436-.15-.627l.314-.061c-.298-.048-.205-.397-.229-.415-.123-.089-.446-.081-.591-.246-.085.221-.129.422-.264.628-.113-.133-.162-.305-.271-.439l-.339.314.492.314c.043-.061.08-.126.12-.188l-.002-.002ZM99.225,95.234l-.12.188.095.061.12-.188-.095-.061ZM115.886,105.757l.06-.094c-.082-.009-.102.023-.06.094ZM98.52,93.85l.061-.094c-.083-.009-.103.023-.061.094ZM99.323,93.567l-.229.248.343.22-.111-.466-.003-.002ZM98.655,93.535l.196.125.058-.092-.195-.125-.059.092ZM98.58,93.221l.489.313.12-.188-.549-.219-.059.092v.002ZM49.057,59.956l-.307.27.367.078c.129-.234.454-.472.126-.634.282-.092.325-.116.397-.41l-.451-.156.229-.248c-.994-.214-.345.13-.728.597l.354.093-.279.22.296.189h-.004ZM62.592,68.595c.377.548.868.157,1.212-.215l-.131-.22.491-.537c-.824-.684-1.189.384-1.572.972ZM60.086,65.15l-.179.28.283-.095.462.438.241-.377-.807-.247ZM59.367,65.086l.06-.094c-.083-.009-.103.023-.06.094ZM59.681,64.49l-.181.283.095.061.181-.283-.095-.061ZM64.091,67.307l.293.188.059-.092-.293-.188-.059.092ZM59.41,62.897c.09.429-.106.984.385,1.271l.384-.027.035-.369-.441-.289.512.062.181-.283c-.326-.086-.562-.243-.686-.568l.421-.531-.729-.385c-.126.202-.319.466-.302.716.014.21.216.308.237.403h.004ZM60.239,62.321l.075.314.12-.188-.196-.125ZM109.065,91.284l.293.188.059-.092-.294-.188-.058.092ZM67.071,63.126c-.079.041-.344.318-.154.402.299-.235.586.116.815-.408l.233.282.246-.357.507.042c-.187-.055-.081-.321-.131-.359-.558-.425-.792.188-1.071.36-.176.109-.388.01-.445.039ZM110.791,89.457l.179.251.341-.306c.3.536.541.06.982.475.472-.291.514-.6.098-.982l-.016.456c-.098.121-.375-.424-.41.204l.046-.502-.269.094-.122-.344c-.103.315-.887.342-.832.66l.003-.005ZM68.56,62.539l.341.262.241-.377c-.307-.077-.488-.186-.684-.438l.102.552ZM108.539,85.631c-.389-.297-.812-.581-.946.066l.238.285.185.054.523-.404ZM114.268,88.76l-.589.485c.03.417.532.544.806.253.023-.179-.255-.313-.269-.403-.016-.129.255-.249.054-.337l-.002.002ZM115.446,87.78c.29.131.281.422.404.66l.514-.594-.451-.377-.47.309.003.002ZM60.766,52.337c.042.272.162.597.539.549.037-.003.238-.576.316-.659.015-.018.368-.023.452-.109-.326-.225-.873-.099-1.175.113l-.073-.312c-.253.23-.078.27-.057.42l-.003-.002ZM88.518,69.895l.61-.103c.708-.66-.587-.822-.61.103ZM60.553,52.013l.06-.094c-.083-.009-.103.023-.06.094ZM112.83,85.181c.329.286.183-.094.327-.236.406-.391.683.021.894-.045.555-.707-.507-.372-.912-.856l-.368.554c-.364-.342-.494.031-.335.324.113-.258.321-.037.526-.059l-.133.313v.004ZM58.051,47.618c.065.025.129.113.223.143.066.018.343-.227.584.108l.151-.567-.585.157-.072-.312c-.117.133-.187.353-.301.471-.087-.035-.186-.173-.285-.162l-.882.478.587.375c.006-.391.308-.416.58-.691ZM114.338,84.546c.087.223.644-.058.692-.221l-.233-.282c-.031.436-.243.171-.459.503ZM66.823,50.301c.558.381,1.348.13,1.645-.412.05-.012.444.686.707.187l-.66-.691c-.106.419-.569.436-.704.527-.09.058-.541.437-.636.448-.138.017-.266-.258-.347-.059h-.004ZM58.349,43.445c.013.107-.967.76-.491,1.126l.56-.119c.113-.408.395-1.075-.118-1.328-.249.202.04.247.047.319l.003.002ZM58.934,42.999s-.197-.133-.183-.25c-.216.001-.3.094-.385.281l.451.156c.03-.063.123-.16.121-.189h-.004ZM121.682,79.537c.2.2.184.06.297.016.546-.219.918-.431,1.399-.729l-.181-.579-.281.355-.732-.274c.447.742-.245.592-.275.634-.084.12-.066.441-.227.576ZM73.163,41.709c.213.402.716.305.869-.094-.194-.366-1.08-.299-.869.094ZM130.185,76.064l.06-.094c-.083-.009-.103.023-.06.094ZM72.12,38.131c-.089-.193-.697-.296-.793-.047-.064.16.346.497.493.506.099.005.334-.389.303-.457l-.002-.002ZM79.723,40.23c.036.071-.174.178.01.238l.459-.503-.587-.375-.239.375c.108.09.29.131.356.262v.004ZM72.475,33.698c.231.247.384.052.644.071l.117-.184-.106-.265.551.216-.105-.261.254-.165.388.238-.052-.564c.341.361.798.067,1.196-.035l.025.281.836-.66c-.423-.24-.828-.4-1.046.128-.313-.03-.059-.31-.121-.346-.283-.16-.709.17-.669.505l-.289-.178c-.321.684-.365.294-.71.326-.492.046-.409.562-.552.781-.049.077-.301-.203-.355.113h-.004ZM87.991,42.045c-.521.235-.131.924.277.81.551-.155.076-.969-.277-.81ZM90.948,43.651l.84.394.207-.395c-.009-.179-.355-.407-.521-.401l-.523.404-.003-.002ZM88.475,39.564c-.533.568-.171.963.516,1.11.241-.526.153-1.029-.516-1.11ZM85.605,36.931c-.625.292-.535.71-.021,1.144.967.03.857-.854.021-1.144ZM90.927,40.448l-.339.314c.146.131.154-.092.293-.166.048-.024.18.067.216.016.085-.116.068-.437.229-.572-.36-.233-.624-.052-.919.144l.518.267.002-.002ZM116.359,51.392c-.086-.027-.412-.014-.377.158.333.54.431.255.549.263.067.005.133.18.258.199.062.009,1.098-.435,1.138-.481.045-.049-.156-.137-.128-.231.16-.548.534-.238.895-.537l-.427-.409-.463.497-.389-.242c-.133.102-.019.24-.023.251-.025.062-.087.125-.12.188-.133-.163-.441-.156-.552-.22-.038-.024-.081-.243-.135-.219l-.106.596c-.046.045-.072.134-.12.188ZM95.368,38.485c.177.569,1.793-.168.15-.687l-.15.687ZM117.765,51.893l.061-.094c-.083-.009-.103.023-.061.094ZM118.806,50.697l.06-.094c-.082-.009-.102.023-.06.094ZM119.024,50.571l.061-.094c-.083-.009-.103.023-.061.094ZM84.79,26.572c-.72.363.19,1.752.716.924.453-.708-.339-1.116-.716-.924ZM81.912,25.471c.335.415.638.024.976-.074l-.135-.219c.615.121.333-.42.307-.801-.218.153-1.082.206-.413.536l-.059.092c-.213-.191-.291-.019-.393.195l-.34-.126c-.02.059.043.385.055.4l.002-.002ZM97.838,32.232l.456.359.056-.298-.453-.154-.059.092ZM98.119,32.013l.78.499-.173-.376.256.031c.248-.277-.167-.175.069-.555.236-.38.312.047.475-.295-.562-.033-.073-.543-.76-.751l-.203.534-.398-.455c-.106.419.333.523.382.911l-.329.066-.097.39-.002.002ZM88.582,24.051l-.68.433.38.543.617-.174-.317-.802ZM104.479,34.872c.216.066.43-.158.335-.379l-.653-.278c-.129.258.053.575.321.658l-.003-.002ZM110.207,36.003l.786.23.387-.794-.451-.156c-.035.458-.231.676-.656.38l-.063.341-.003-.002ZM97.288,22.304c-.122-.323-.576-.321-.587-.375l.138-.215-.153-.193-.178.152-.299-.273-.429.257.157.71.722.06-.077-.311.587.375.037.157c.123-.153.148-.171.083-.345v.002ZM97.521,22.586l-.121.188.096.061.12-.188-.095-.061ZM97.483,22.429l.391.25.044-.295.271.03c.357-.653-.552-.557-.706.015ZM95.999,21.082l-.12.188.095.061.12-.188-.095-.061ZM95.533,20.518l-.119.397.427.199-.308-.595ZM98.112,21.766l.061-.094c-.083-.009-.103.023-.061.094ZM130.207,36.461l.137.731.072-.206.293.177c.363-.595.122-.766-.499-.7l-.003-.002ZM113.027,21.861l-.023.251.62-.533.229.283.189-.257.289.161-.134-.215c.263-.329.039-.465-.143-.755-.311.404-.764.587-1.243.331l-.2.737h.414s.002-.003.002-.003ZM145.512,37.316c-.321.016-.184.822-.135.973.192.596.457.109.694-.04.036-.024.162.056.218.007.332-.288-.119-.461.206-.753l-.411-.219c-.065-.191-.049-.272-.071-.453l-.396-.11-.047.29-.352.119c.009-.202-.251-.546-.12-.673l.602-.081c-.468-.367-1.04-.008-1.383-.422l.117.674h-.414s.467.32.467.32l-.121.437.756.061c.033-.03.091-.258.095-.314.157.002.21.069.293.188l.002-.002ZM145.725,36.656l.061-.094c-.083-.009-.103.023-.061.094ZM144.805,35.935l.061-.094c-.083-.009-.103.023-.061.094ZM102.881,8.057l.06-.094c-.083-.009-.103.023-.06.094ZM103.077,6.988c-.466-.145-.573.648-.276.753l.659-.29-.162-.587-.301.471.08-.347ZM111.084,7.853c-.252.571-.277,1.045.337,1.411l.277-.466-.597-.535-.015-.408-.002-.002ZM108.171,6.215c.039.188.568.874.651.855l.681-.878c-.16-.324-1.048-.974-1.277-.527-.011.167-.087.39-.054.548v.002Z" fill="#a35cff"/>
  <path d="M67.282,144.098c-2.094-.328-6.871-2.563-8.295-4.137-.147-.162-.193-.328-.253-.526-.406.094-.775-.291-1.12-.679-1.386-1.561-1.863-3.418-2.121-5.35.546-.379.701-1.914,1.025-2.221.1-.096.307-.049.424-.154.383-.344.337-.482.854-.822.554-.364,1.964-1.535,2.417-.742.23-.493.532-.13.819-.137.451-.015.52-.073,1.083.008.165.024.221-.24.553.173l.189-.08-.135-.219c.266.402.642.145.678.161.175.074.499.418.777.558.774.393,1.658.7,2.427,1.11.224.119.278.389.595.439.498.077,2.625-.602,3.338-.728.163-.029.433.069.568.029.375-.117.117-.16.71-.243.594-.083,1.238-.427,1.893-.512.085-.011.219.127.267.113.095-.028.138-.259.255-.321.068-.035.375.066.528.042.164-.024.787-.236.837-.231.197.017.359.278.61.288.556.025,1.856-.72,2.405-.882,3.74-1.108,9.595-.614,10.402,4.113l-.178.118c.495.613.882,1.687,1.051,2.466.023.103.128,1.236.1,1.296-.051.124-.248.212-.25.259,0,.03.156.154.146.335-.045.816-.57,2.481-.824,3.282-.03.097.136.186.119.239l-.116.181c-.353-.005-.697.14-1.054.119-.112-.007-.201-.149-.3-.161-.274-.036-.841.044-1.1-.125-.293-.194.123-1.954.065-2.477-.01-.105-.202-.922-.238-.959-.497-.532-1.197-.664-1.868-.603-.802.072-1.509.349-2.184.758-1.361.825-2.676,1.992-4.052,2.801-.045.026-.426.667-.6.822-2.272,2.006-5.627,2.607-8.698,2.652-.342-.515-.826-.569-1.189-.097-.237-.315-.379-.307-.567.036l.008.009ZM69.912,143.118l.06-.094c-.083-.009-.103.023-.06.094ZM70.373,143.147c.268-.485-.463-.8-.647-.281.341-.037.429-.002.647.281ZM70.935,142.706l.321.471c.36.006.292-.29.41-.531l.331.344c.188-.094.426-.599.274-.754-.271-.278-.77.458-.935.522-.165.065-.31-.249-.4-.048v-.004ZM73.23,141.918l-.349.971c.078-.222.305-.057.318-.066.038-.02-.023-.583.323-.72l-.293-.188.002.002ZM72.478,142.233l.196.125.12-.188-.196-.125-.121.189ZM73.672,142.2l.06-.094c-.083-.009-.103.023-.06.094ZM62.266,129.718l-.177.486c.191.497.764.495,1.085.888l.292-.341-.366.031.182-.285c-.237-.138-.596.075-.967-.09l-.049-.692-.002.002ZM80.903,137.416c.06.144-.145.326.198.497.15.075.501.051.559-.112-.069-.466-.614-.488-.947-.674-.138.15.138.16.19.288ZM81.465,136.808c-.228-.074-.349.06-.434.254.228.074.349-.06.434-.254ZM82.021,137.562l.06-.094c-.083-.009-.103.023-.06.094ZM81.385,137.155c.228.18.51.34.67.03-.033-.137-.71-.127-.67-.03ZM76.366,130.756l-.766-.228-.243.512.986-.033.523-.061-.121.188.62-.002-.166-.171c.122-.13,1.157-.135.393-.46-.272-.116-.645.091-.959-.362l-.303.269c.175.201.047.241.037.351v-.004ZM84.331,136.647c.035.227.584.108.701-.018.024-.026-.197-.239-.05-.359-.024-.09-.692.126-.652.379v-.002ZM84.424,136.175l.06-.094c-.083-.009-.103.023-.06.094ZM85.144,136.237l-.121.188.095.061.12-.188-.095-.061Z" fill="#a35cff"/>
  <path d="M106.831,102.754c-.54-.05-.758-.08-.866.504l.77.38.311-.353.391.25-.437.252.211.533c-.261-.184-.574-.153-.828.002.406.15.215.41.088.724-.318-.656-1.411-.776-1.374-1.414l-.463-.027.182-.285c-.618-.31-.755-.255-1.223.222-.056.226.407.319.198.518-.191.184-.382-.469-.357-.59.063-.293.282-.531.302-.838l1.04.518.558-.426c-.189-.07-.146-.345-.171-.378l.515.061.021-.242.494.166-.021.265c.254.084.961-.366.664.155h-.005ZM105.252,103.606l.06-.094c-.083-.009-.103.023-.06.094Z" fill="#a35cff"/>
  <path d="M20.319,85.466l-.65-.283-.079.344-.593-.243.111-.726c.554.222,1.13.083,1.643.071.326-.006.301.319.451-.335l.286.176.311-.458c.132.064.027.262.015.408-.021.265-.184.631.09.721-.046.039.14.294-.257.186l-.082.128c-.51-.241-.78-.482-1.244,0l-.002.009ZM20.038,85.15l.06-.094c-.083-.009-.103.023-.06.094Z" fill="#a35cff"/>
  <path d="M67.282,144.098c.188-.343.33-.351.567-.036.362-.473.847-.418,1.189.097-.635.009-1.082.046-1.757-.058l.002-.002Z" fill="#a35cff"/>
  <path d="M87.125,121.274c-.03-.019-.071-.038-.098-.062l.367-.541c1.002.14.575,1.089-.27.604Z" fill="#a35cff"/>
  <path d="M19.876,86.377l-.196-.125c.023-.125.212-.116.218-.126.082.087.017.167-.023.251Z" fill="#a35cff"/>
  <path d="M110.929,106.705c-.212.603-1.278-.089-1.148-.469l-.564-.091c-.286.277.358.331-.193.407l.254-.502c-.486-.113-.728-.36-1.076-.688-.235.19.099.403.096.474,0,.036-.428.332-.381.597l-.631-.063.616-.532-.291-.192.286-.015c.051-.345-.004-.387-.339-.554l.346-.109c-.289-.399.025-.515.417-.343l.027.293.169-.689.365.38.282-.099c-.426.429-.06.425.02.676.079.252.101.62.151.89.452.166.656-.319.706-.331.049-.01.682.205.526.459.037.319.133.401.369.501h-.007ZM110.232,106.392l.06-.094c-.082-.009-.102.023-.06.094ZM110.037,106.267l.06-.094c-.083-.009-.103.023-.06.094ZM108.65,104.982l.061-.094c-.083-.009-.103.023-.061.094Z" fill="#a35cff"/>
  <path d="M77.835,84.869l.091-1.004.17.375c.271-.215.687-.527.887-.1l.563-.433-.023.251.583.165-.019.461-.289-.178-.249.368-.363-.31c-.396.387-.647.26-.994-.159-.26.181.08.262.039.376-.05.145-.193.268-.263.411l.226.083c-.392.216-.729-.037-.906.544l.104-.808.442-.044v.004ZM78.696,84.494l.06-.094c-.083-.009-.103.023-.06.094Z" fill="#f24659"/>
  <path d="M104.015,109.489l-.266-.082c.053-.282-.075-.32-.33-.456l.63-.124-.167-.185.313-.252.223.408c.608-.244.853.008,1.3.437-.339.723-1.066.639-1.752.469l.047-.212.002-.002Z" fill="#a35cff"/>
  <path d="M46.075,66.809c-.027-.051.091-.303-.002-.461-.187-.321-1.166-.215.095-.794l.179.128c-.187.398.73.763,1.104.56.032.347.002.648.336.878.045.393-1.622-.149-1.708-.313h-.004Z" fill="#a35cff"/>
  <path d="M57.47,78.661c.006-.02-.133-.112-.106-.187.084-.236.325-.459.439-.693.262.192.626.237.516.585l.403.138-.347.112c.215.267.069.61-.214.765-.064.034-.189-.036-.228-.02-.033.013-.105.352-.588.124-.211-.383.07-.623.125-.819v-.006ZM58.091,79.164l.06-.094c-.083-.009-.103.023-.06.094Z" fill="#a35cff"/>
  <path d="M15.78,86.951c.306-.24-.061-.396.054-.626l.93.595-.173-.376c.216.22.421-.211.586-.16l.1.595.522-.844-.375-.458c.875-.053.384.355.457.572l.334.135c-.075.255-.177.547-.496.35l-.09.14c-.042.11.309.163.042.36l-.293-.188-.363.568-.808-.786-.188.183-.24-.055v-.006Z" fill="#a35cff"/>
  <path d="M62.592,68.593c.384-.589.748-1.656,1.572-.972l-.492.537.131.22c-.344.372-.833.767-1.212.216Z" fill="#fcdfe2"/>
  <path d="M99.014,94.694c.136-.206.179-.407.264-.628.145.161.468.157.592.246.025.016-.068.365.229.415l-.315.061c.333.192.132.473.15.627.019.169.285-.291.414,0l-.339.314.271.439c-.475-.229-.623-.821-.968-1.249-.093-.114-.245-.164-.298-.225-.04.063-.075.129-.12.188l-.492-.314.339-.314c.109.134.158.305.271.439l.002.002Z" fill="#a35cff"/>
  <path d="M64.531,81.779c-.044-.174.072-.693.214-.81l.239-.031c.225.338.428-.101.854.25l-.268.22.125.219-.237-.066c-.104.427-.784.789-.923.217h-.004Z" fill="#f68390"/>
  <path d="M112.83,85.178l.133-.313c-.205.022-.413-.2-.525.059-.159-.292-.03-.666.334-.324l.369-.554c.404.483,1.466.148.911.855-.212.062-.488-.347-.893.044-.146.139,0,.518-.328.236v-.004Z" fill="#a35cff"/>
  <path d="M110.791,89.454c-.054-.318.728-.342.832-.66l.123.344.268-.094-.045.502c.034-.628.309-.081.409-.204l.017-.456c.414.384.376.693-.099.982-.442-.412-.682.061-.982-.475l-.341.306-.179-.251-.003.005Z" fill="#a35cff"/>
  <path d="M121.681,79.536c.162-.138.143-.456.227-.576.027-.041.723.108.275-.634l.733.274.28-.355.181.579c-.477.298-.849.509-1.399.729-.114.046-.094.185-.297-.016Z" fill="#a35cff"/>
  <path d="M27.672,76.588s.176-.098.136-.229c-.056-.189-.349-.322-.247-.492.422.097.866.363,1.286.414.199.025.229-.391.443.307-.454.323-.951.41-1.263-.158l-.116.392c-.065.003-.235-.218-.239-.234Z" fill="#fbcdd2"/>
  <path d="M57.346,90.301c-.019-.285-.356-.697-.141-1.006.272-.391.631.329.967.428-.068.106-.911,1.092-.958.851.048-.081.137-.175.131-.271l.002-.002Z" fill="#f9b8bf"/>
  <path d="M110.56,106.205c-.006-.052.257-.227.025-.443l.3-.281c.098.526.329.503.76.751-.524.316-.082.299-.264.628-.145-.072-.306-.09-.453-.153-.235-.102-.332-.182-.368-.501Z" fill="#a35cff"/>
  <path d="M13.596,84.346c.247-.227-.135-.839-.095-.946.113-.299.475-.649.803-.719l-.57.565c.233.061.626.319.589.581-.046.342-.379.002-.497.346-.025.072.305.181.048.361l-.279-.188Z" fill="#a35cff"/>
  <path d="M115.912,106.036s.106-.15.246-.169c.439-.056,1.309.572.771.949l-.073-.312-.658.372-.163-.176.387-.606c-.171.03-.356-.051-.509-.06v.002Z" fill="#a35cff"/>
  <path d="M31.06,79.277l.203-.776c.222.078.489.092.62.318l-.101.804-.723-.35v.004Z" fill="#fef8f8"/>
  <path d="M132.702,138.054l.053-.293-.229-.085c.07-.142.217-.267.265-.413.043-.129-.241-.154-.101-.279l.782.5.093-.472c.265.326.265.36.144.753l-.288-.174-.488.532-.232-.074v.004Z" fill="#a35cff"/>
  <path d="M67.072,63.123c.057-.028.27.07.445-.039.279-.172.513-.785,1.071-.36.05.039-.055.302.131.359l-.507-.042-.246.357-.233-.282c-.229.524-.519.176-.815.408-.19-.084.075-.36.154-.402Z" fill="#a35cff"/>
  <path d="M53.135,96.737l.117-.184.8.246c-.188.499-.218.8-.757.973-.252-.341.233-.757-.161-1.036Z" fill="#a35cff"/>
  <path d="M33.52,82.734l.59-.491.554.637c-.308.504-.782.113-1.145-.143l.002-.002Z" fill="#fdf3f4"/>
  <path d="M80.219,86.687c-.005-.064-.237-.087-.096-.215l.98.627c-.189.461-.912.537-1.043-.004-.053-.211.164-.351.159-.409Z" fill="#fef8f8"/>
  <path d="M9.975,80.213c-.055-.124-.33-.136-.192-.286l.43.405.083-.345.257.566.611.111-.053.64c-.302-.462-.623-.374-1.065-.562-.162-.172-.018-.413-.07-.531l-.002.002Z" fill="#a35cff"/>
  <path d="M29.994,80.482c.609.008,1.041-.169,1.634.245.102.344-1.099.067-1.173.06-.129-.014-.489.317-.462-.306Z" fill="#f57583"/>
  <path d="M74.968,86.765l.461-.948.655.065c-.141.176-.226.448-.382.597-.062.059-.207-.051-.275.005-.18.154-.167.564-.457.283l-.003-.002Z" fill="#f24659"/>
  <path d="M115.911,106.036c-.224-.01-.678-.018-.793.157-.125-.148.029-.294-.164-.5-.154-.163-.18-.078-.163.094l-.297-.126.655-.224c.252.032.593.604.762.599Z" fill="#a35cff"/>
  <path d="M33.718,79.403l-.451-.156c.368-.537.549-.891.842-.04l-.473.541.083-.345Z" fill="#fdf6f7"/>
  <path d="M18.585,78.902c-.064-.552.205-.846.625-1.193l-.084.348.222.04.146.461-.734-.139c.155.188.281.782-.173.485l-.003-.002Z" fill="#a35cff"/>
  <path d="M106.797,122.596c-.071-.182-.158-.227-.339-.265l.181-.283c.165.3.4.413.729.467l.136-.312c.33.146.11.165.053.337s.262.232.353.321l-.383-.109c-.309.235-.543-.266-.703.078-.177-.055,0-.162-.027-.235Z" fill="#a35cff"/>
  <path d="M87.912,113.132l.301-.471c.309.163.578.383.631.737-.315-.065-.67-.047-.932-.266Z" fill="#fcdfe2"/>
  <path d="M68.559,62.538l-.103-.552c.196.251.377.36.685.438l-.241.377-.341-.262Z" fill="#a35cff"/>
  <path d="M132.338,136.888l.424-.662.293.188c-.142.151-.432.742-.715.472l-.002.002Z" fill="#a35cff"/>
  <path d="M60.086,65.147l.807.247-.241.377-.462-.438-.281.096.177-.282Z" fill="#a35cff"/>
  <path d="M18.369,85.285l.35.088-.361.565.011-.653Z" fill="#a35cff"/>
  <path d="M76.423,85.568c-.029-.158.615-.271.632-.127l-.301.471-.331-.344Z" fill="#f24659"/>
  <path d="M114.338,84.543c.216-.332.431-.065.46-.503l.233.282c-.048.163-.605.444-.693.221Z" fill="#a35cff"/>
  <path d="M118.934,109.296c.393.285.5.544.323,1.003l-.034-.4-.348-.307c-.071-.131.042-.215.061-.299-.08-.058-.303-.047-.33-.098l-.076-.56.475.423c.078.104-.06.176-.069.235l-.002.002Z" fill="#a35cff"/>
  <path d="M132.014,137.615l.447-.378c.131.288-.084.331-.253.502l-.194-.123Z" fill="#a35cff"/>
  <path d="M107.705,103.981l.293.188-.337.312-.095-.061.139-.439Z" fill="#a35cff"/>
  <path d="M98.581,93.218l.058-.092.549.218-.12.188-.487-.315Z" fill="#a35cff"/>
  <path d="M131.798,136.012c-.012-.031-.146-.076-.196-.125l.268-.094c.106.061-.084.181-.072.219.025.081.358.246.112.47-.322-.087-.1-.435-.112-.47Z" fill="#a35cff"/>
  <path d="M106.385,105.397c.119-.098.05-.299.316-.063l-.12.188c-.036-.006-.127.065-.194.005l-.002-.13Z" fill="#a35cff"/>
  <path d="M114.19,105.066l.059-.092.351.092-.121.188-.289-.188Z" fill="#a35cff"/>
  <path d="M133.748,137.921l.195.125.121-.188-.196-.125-.12.188Z" fill="#a35cff"/>
  <path d="M106.688,104.923l.196.125.12-.188-.195-.125-.121.188Z" fill="#a35cff"/>
  <path d="M59.501,64.769l.095.061.181-.283-.095-.061-.181.283Z" fill="#f24659"/>
  <path d="M64.09,67.305l.293.188.059-.092-.293-.188-.059.092Z" fill="#fcdfe2"/>
  <path d="M60.239,62.318l.196.125-.119.186-.077-.311Z" fill="#f24659"/>
  <path d="M109.064,91.281l.294.188.058-.092-.293-.188-.059.092Z" fill="#fefefe"/>
  <path d="M99.323,93.564l.113.47-.341-.224.228-.246Z" fill="#a35cff"/>
  <path d="M98.655,93.532l.196.125.058-.092-.195-.125-.059.092Z" fill="#a35cff"/>
  <path d="M99.105,95.421l.095.061.121-.189-.096-.061-.12.188Z" fill="#a35cff"/>
  <path d="M134.143,142.7l.195.125.059-.092-.196-.125-.058.092Z" fill="#fefefe"/>
  <path d="M107.371,104.829c-.043-.072-.023-.103.06-.095l-.06.095Z" fill="#f24659"/>
  <path d="M107.134,104.546c-.043-.072-.022-.103.061-.095l-.061.095Z" fill="#f24659"/>
  <path d="M130.184,76.062c-.042-.072-.022-.103.061-.095l-.061.095Z" fill="#fefefe"/>
  <path d="M110.265,107.208c-.016-.096-.119-.25.019-.25.012.086.12.243-.019.25Z" fill="#a35cff"/>
  <path d="M45.362,65.836c-.016-.096-.119-.25.019-.25.012.086.12.243-.019.25Z" fill="#a35cff"/>
  <path d="M106.971,105.238c-.043-.072-.022-.103.061-.095l-.061.095Z" fill="#a35cff"/>
  <path d="M109.728,105.671c-.043-.072-.023-.103.06-.095l-.06.095Z" fill="#a35cff"/>
  <path d="M74.676,87.112c-.043-.072-.023-.103.061-.095l-.061.095Z" fill="#f24659"/>
  <path d="M131.775,136.796c-.043-.072-.023-.103.06-.095l-.06.095Z" fill="#a35cff"/>
  <path d="M28.635,76.022c-.043-.072-.023-.103.061-.095l-.061.095Z" fill="#fbcdd2"/>
  <path d="M41.617,96.291c-.043-.072-.023-.103.061-.095l-.061.095Z" fill="#fefefe"/>
  <path d="M115.886,105.754c-.042-.072-.022-.103.061-.095l-.061.095Z" fill="#a35cff"/>
  <path d="M98.52,93.848c-.042-.072-.022-.103.061-.095l-.061.095Z" fill="#a35cff"/>
  <path d="M59.409,62.896c-.021-.095-.222-.193-.237-.403-.017-.249.175-.511.302-.716l.729.385-.421.531c.126.322.36.482.684.566l-.181.283-.512-.062.441.289-.035.369-.384.026c-.489-.285-.295-.842-.385-1.271l-.002.002Z" fill="#f24659"/>
  <path d="M59.367,65.083c-.043-.072-.023-.103.061-.095l-.061.095Z" fill="#f24659"/>
  <path d="M76.366,130.755c.01-.109.138-.15-.037-.351l.303-.269c.314.453.685.244.959.362.764.325-.273.333-.393.46l.166.171-.62.002.12-.188-.523.061c.051-.08.017-.176.023-.251v.004Z" fill="#a35cff"/>
  <path d="M70.935,142.706c.09-.201.229.112.4.048.172-.064.667-.799.935-.522.152.155-.086.66-.274.754l-.331-.344c-.119.241-.051.539-.41.531l-.321-.471v.004Z" fill="#a35cff"/>
  <path d="M76.343,131.006l-.986.033.243-.512.766.228c-.005.075.028.171-.023.251Z" fill="#a35cff"/>
  <path d="M80.903,137.416c-.053-.126-.332-.138-.19-.288.335.184.878.207.947.674-.061.162-.412.186-.559.112-.34-.17-.138-.354-.198-.497Z" fill="#a35cff"/>
  <path d="M62.265,129.718l.049.692c.372.163.73-.047.967.09l-.182.285.366-.031-.292.341c-.324-.394-.894-.392-1.085-.888l.177-.486.002-.002Z" fill="#a35cff"/>
  <path d="M84.331,136.645c-.039-.253.627-.467.652-.379-.15.118.073.333.05.359-.116.126-.665.245-.701.018l-.002.002Z" fill="#a35cff"/>
  <path d="M73.23,141.917l.293.188c-.345.137-.287.698-.323.72-.013.009-.242-.158-.318.066l.349-.971-.002-.002Z" fill="#a35cff"/>
  <path d="M70.374,143.147c-.216-.281-.303-.316-.647-.281.181-.521.913-.206.647.281Z" fill="#a35cff"/>
  <path d="M81.385,137.155c-.04-.097.635-.104.67.03-.158.308-.44.147-.67-.03Z" fill="#a35cff"/>
  <path d="M81.465,136.808c-.088.192-.209.326-.434.253.088-.192.209-.326.434-.253Z" fill="#a35cff"/>
  <path d="M72.477,142.234l.196.125.121-.188-.196-.125-.12.188Z" fill="#a35cff"/>
  <path d="M85.028,136.423l.095.061.12-.188-.095-.061-.121.188Z" fill="#a35cff"/>
  <path d="M84.424,136.173c-.043-.072-.023-.103.061-.095l-.061.095Z" fill="#a35cff"/>
  <path d="M82.021,137.563c-.043-.072-.023-.103.061-.095l-.061.095Z" fill="#a35cff"/>
  <path d="M73.671,142.2c-.043-.072-.023-.103.061-.095l-.061.095Z" fill="#a35cff"/>
  <path d="M69.911,143.118c-.043-.072-.023-.103.061-.095l-.061.095Z" fill="#a35cff"/>
  <path d="M105.251,103.608c-.043-.072-.023-.103.06-.095l-.06.095Z" fill="#ef243b"/>
  <path d="M20.038,85.151c-.043-.072-.023-.103.061-.095l-.061.095Z" fill="#ef243b"/>
  <path d="M108.65,104.983c-.042-.072-.022-.103.061-.095l-.061.095Z" fill="#ef243b"/>
  <path d="M78.695,84.494c-.043-.072-.023-.103.061-.095l-.061.095Z" fill="#ef243b"/>
  <path d="M58.092,79.163c-.043-.072-.023-.103.06-.095l-.06.095Z" fill="#ef243b"/>
  <path d="M42.806,89.472c-.043-.072-.023-.103.061-.095l-.061.095Z" fill="#ef243b"/>
  <path d="M110.231,106.393c-.042-.072-.022-.103.061-.095l-.061.095Z" fill="#ef243b"/>
  <path d="M110.036,106.269c-.042-.072-.022-.103.061-.095l-.061.095Z" fill="#ef243b"/>
  <path d="M77.807,83.266c.696.237,1.284.478,1.971.763,3.331,1.388,5.578,2.161,9.285,2.833,2.573.468,5.366.576,7.906,1.073.55.107.982.54,1.298.163.213.014.456.292.52.302.02.002.164-.13.338-.104.722.114,1.426.268,2.154.295.263.08.498.526.472.775-.017.159-.321,1.276-.393,1.478-.488,1.336-1.379,1.399-2.71,1.337-4.369-.207-10.326-.582-14.429-2.055-2.867-1.03-6.007-2.49-8.949-3.071-.267-.052-.608-.276-.822-.284-.122-.003-.122.191-.158.202-.14.036-.267-.096-.523.061-.052.032-.554.602-.576.646-.033.074.143.163.114.247-.088.254-.396.618-.507.915l-1.985.011-.371.746-.134-.222c-.065.084-.095.27-.247.247-.452-.071-1.186-.775-1.796-.982-1.279-.43-2.904-.574-4.051-1.294-.236-.151-.38-.389-.612-.534-.329-.204-1.619-.848-1.742-1.049-.173-.277-.304-1.723-.261-2.094-.57-.147-1.024-.625-1.647-.475-.096.024-.191.222-.316.223-.552.008-1.203-.803-1.604-1.066-1.084-.714-2.544-1.049-3.738-1.9-.914-.653-2.076-1.886-3.003-2.431-.46-.27-.732-.016-1.014-.056-.394-.058-.552-.551-.869-.774.386-.454.045-.39-.061-.683-.062-.169-.333-1.01-.308-1.092.053-.194.242-.356.294-.554.11-.399.079-.92.31-1.279.614-.955,2.003-1.105,2.574.046.05.104-.062.28.002.318.072.042.343.005.508.107,1.769,1.09,3.115,2.094,5.156,2.76.705.229,1.604.325,2.297.584.485.181,1.393.799,1.843.835.132.009.216-.277.474-.167l-.016-.405c.832-.053,1.913.202,2.454.902-.147-.394-.547-1.398-.839-1.643-.345-.289-1.904-.625-1.921-.725l.306-.451c.447.262.496-.074.637-.107.036-.007.626.077.759.05.074-.133-.246-.471-.331-.549-.941-.837-1.98-.473-2.838-1.407-.055-.168-.044-.185.105-.27.615-.342,1.602.047,2.243-.159-.013-.124-1.409-1.647-1.517-2.025-.04-.142.055-.23.124-.332-.314-.034-.476-.124-.619-.413-.296-.598-.52-2.147-.734-2.89-.185-.639-.2-.693-.27-1.306-.005-.058-.45-.523-.569-.956-.119-.433-.844-4.386-.803-4.616.056-.315.127.122.074-.541-.07-.862-.128-1.562-.369-2.422-.083-.295-.366-.582-.383-.97-.017-.388.21-.781.193-1.191-.004-.077-.178-.826-.21-.859-.827-.972-1.035.066-1.788.436l-.315-.225.52-1.05-.166-.171c-.535.362-1.09.103-1.721.244-.399.088-.786.461-1.168.169l-.08.347c-.367-.194-.549-.44-.493-.843-.469-.161-1.265.233-1.632.127-.445-.128-.678-.74-1.186-.803-.153-.02-.297.144-.418.151-.794.054-1.593-.117-2.304-.098-.365.008-1.566.438-1.649.413-.49-.14-.023-.444.014-.573.025-.089-.134-.161-.104-.247.063-.181.551-.618.232-.689-.152-.033-.521.007-.753-.032-.325-.055-.555-.304-.95-.138l-.211-.394-.243.379-1.328-.696c-1.338.734-2.584,1.384-1.438-.807-.097-.174-1.095-.254-1.172-.222-.207.086-.605.808-1,.896l.069,1.107-.483-.101c-.056.557-.758.4-1.138.603-.173.094-1.166,1.082-1.216.465l.78-1.418c-.361-.302-1.607.64-1.613.037l.779-1.102c-.13-.134-.142.1-.287.079-.194-.029-.382-.176-.608-.181-.03-.002-.562.094-.587.111-.064.044-.168.522-.528.422-.704-.198.523-1.282.761-1.494-.136-.339-1.4.085-1.591.3l-.305-.335c.076-.401,1.313-.927,1.033-1.317-.312.134-2.351.396-2.437.038.075-.466.611-.382.644-.405.045-.032.031-.253.193-.39.293-.248.998-.539,1.373-.715-.077-.178-.989-.398-1.187-.371-.262.034-.279.458-.671.044l-.083.345c-1.045-.376,1.113-1.508,1.376-.649l.183-.53c-.539-.638-1.608-.613-1.969-1.225l.345-.28,1.789-.67-1.617-1.041c-.579.049-1.133-.023-1.5-.554.438-.635,1.295-.18,1.852-.051.303.068.633.071.952.146.115.03.183.216.267.239.021.006.242-.206.417.039.268-.523-.64-.733-.666-1.223-.392.359-1.381-.359-.832-.716.121-.079.27.009.371-.028.102-.037.136-.196.254-.198.673-.025,1.33,1.208,1.652,1.074.537-.221-.02-1.759.528-1.786.638.268.542.888.905,1.369.878-.589-.022-1.893.803-2.543.959.566-.185,1.417.692,2.039.284-.234.348-.622.57-.929.117-.16.458-.163.449-.547.646.172.22,1.247.963,1.079l-.017-.409.229.078.119-.186c-.456-.248-.236-.801-.261-1.222-.009-.129-.402-.846.06-.84.626.009,1.134,1.906,1.156,2.407,1.004-.083.961-.978,1.379-1.586.608-.884,1.181.861.509,1.33,1.366.714.679-.642.946-1.22.142-.311.732-.774.885-1.18l.375.11c.219.851-.173,1.718-.055,2.6l.226.077c.147-.556.079-1.046.788-1.021-.701-.462,1.011-1.471,1.178-.98-.187.292-.532,1.699-.306,1.904l.577.263c.223-.569.271-1.699.683-2.15.087-.098,1.285-.529,1.38-.506.854.223-.411,1.272-.445,1.856-.003.076.286.911.395.886.257-.843.491-1.735,1.515-1.795.165-.01.423-.076.534.104.18.299-.139.636-.006.871.12-.431,1.474-1.056,1.769-.727.148.166-.329,1.696-.38,2.014,1.167.644.927-.67,1.405-.882.133-.058.292.007.428-.039.434-.148,1.376-.737,1.799-.354.006.494-.208.922-.57,1.239.524.009,1.204-.534,1.67-.137.467.397-.729.936-1.044,1.201-.277.235-.605.764-.824.906-.31.203-1.419.413-1.861.358-1.678-.198-3.387-1.107-5.13-1.153-1.87-.049-3.707.25-5.579-.208-1.218-.299-2.187-.32-3.4-.047-.165.037-.369.234-.488.233-.119-.001-.252-.148-.279-.144-.019.002-.018.254-.115.362-.145.166-.553.229-.757.343-.106.061-.211-.029-.12.192.262.192.691.997.875,1.111.105.067.389.048.557.084.074.017.158.162.174.153.057-.028.093-.206.187-.231.078-.022.243.111.396.083.185-.035.865-.397,1.034-.363.563.108.867.827,1.071.855.359.046.952-.423,1.296-.513,1.169-.314,2.47.204,3.637.29,1.411.103,3.95-.272,5.28.218.566.209,1.006.653,1.681.735l.112.354.235-.251c.299.389.298.279.695.311l-.058-.357c.607-1.154.902-.703.996.293.478,0,.722-.001.826-.534l.896.77,1.002-.473c.467.033.364.784.579.874l1.055-.115c.064.215.01.432.066.648.176.647.411.335.817.573.101.058.819.636.89.712.046.05.107.749.282,1.028.922,1.447,2.089,1.744,2.592,3.703.231.893.415,1.753.752,2.646.314.834,1.126,2.211,1.128,3.125,0,.457-.408,1.312-.351,1.593.049.232.546.969.674,1.388.098.322.28,1.054-.109,1.132.02.074.344.036.425.197.028.055.106,1.082.107,1.219-.001.908-.345,1.904-.326,2.78.005.224.247.553.296.846.117.718.133,2.267.051,3.035-.069.65-.348.649-.119,1.296.146.413-.022.565-.003.866.018.287.653,2.232.895,2.38.37.223.697.225.774-.244l-.215-3.497c.036-.222.01-.457.077-.673.354-1.156,1.313-1.655,1.917-2.6.343-.536.535-1.605.888-2.244,1.217-2.2,5.456-6.029,7.852-6.896,1.068-.389,1.756-.63,2.83-1.077.865-.359,1.767-.62,2.627-.982l.146.424c-.279.281-.635.336-.932.629-.083.08-.31.268-.121.355,1.052-.893,2.88-.902,4.25-.789.578.046,1.286.166,1.857.299.022-.421.87-.553,1.196-.726.269-.145.544-.309.737-.55.648.251.42.956.484,1.501,1.005.125,1.95-.231,2.973-.097l.27.523-.612.538.011.314,3.983,1.39-.002.24c.451-.423,1.206.291,1.663.526.25.129.606.02.936.465l-.124.326c.563-.256,1.045.161,1.331.675.165.296.052.4.607.687.646.332,1.493.516,2.158.846.209-.343,1.132-1.522,1.604-1.095.025.762-.807.964-.777,1.767.097.242,2.05-1.559,2.284-.333l-.986.895c.523.746,1.375.917,2.029,1.447.437.355.947,1.021,1.352,1.376.258.226.592.378.812.659.305.158.851-.188,1.136-.141.128.021.193.174.224.181.109.022.174-.233.4.021l-.253,1.367c.215.41,1.386.529,1.271,1.146l.148.088.18-.154c.387.306.806.91,1.183,1.166.55.372,1.811.521,2.437.388.251-.054.372-.392.89,0-.021.497-.303.872-.668,1.172l.917.72,1.093-1.085c1.286.376-.271,1.369-.428,2.024.879,1.403,2.144,1.851,3.528,2.543.241.12.44.312.683.43.168.084.369-.019.594.125.604.382.531.999.812,1.411.307.452.914.67,1.258,1.104.395-.071-.874-1.335-.213-1.59.43-.164.918,1.166,1.095,1.453.219.354.513.695.747,1.042.12-.028.053-.653.02-.783-.247-.951-.828-2.003-1.187-2.928-.112-.691.571-.319.873-.051.191.166.795,1.111.899,1.092.142-.161.009-.318.087-.512.143-.355.637-.399.149-.929-.17.041-.325.735-.507.472-.07-.1-.075-.28-.22-.451-.515-.598-1.451-1.327-1.764-2.01-.071-.158.043-.347-.055-.505-.078-.132-.306-.223-.333-.302-.018-.049.203-.942.225-.993.075-.167.26-.246.36-.474.24-.551.006-1.732.987-1.742l.315.236c-.179.784-.384,1.667-.425,2.472-.013.23-.003.628.088.846.759-.712,1.564-1.352,2.219-2.172l.37.294c.158.36-2.08,2.18-1.097,3.101.702.074,1.499-1.813,2.049-1.485.849.506-.707,1.618-.929,1.993-.196.334-.173.829-.337,1.184.169.057.36-.192.548-.287.115-.059.274.012.297,0,.064-.04.289-.646.558-.78.198-.098.792-.018.482.434-.451.661-1.1,1.257-1.294,2.073.034.086.745-.021.858-.044.562-.104,1.189-.56,1.687-.058.028.106-.801.839-.974.943-.172.104-.285-.101-.36.066.419.312,1.595.213,1.651.882.096,1.099-1.545,1.112-2.261,1.359-.313.109-.638.385-.986.465l1.291.026c.565-.04,1.196-.385,1.706.033.08.35-1.894,1.09-2.147,1.418.075.208,2.626.341,2.364,1.049-.313.164-2.679.775-2.608,1.056.398.394,1.255.513,1.647.795.344.247.014.519-.32.418-1.011-.197-1.885-.406-2.879-.078.139.208.39.324.549.494.194.205.078.111.442.409.315.259.916,1.049.559,1.419-.719-.661-1.549-1.021-2.472-1.312l.161.77c.057.292.86,1.197.651,1.407-.468.473-1.334-1.919-2.182-1.46-.383.207.298,1.606.129,1.876-.545.554-1.258-.944-1.345-.925-.262.581.202,2.12-.926,1.249.055-.108.129-.186.103-.322-.064-.313-.414-1.048-.53-1.398-.541.603-.548,1.515-1.173,2.028-1.015-.544-.363-1.342-.117-2.059.032-.089.146-.659-.104-.594-.056.287-.335.17-.415.235-.422.323-1.01,1.243-1.38,1.446-.802.441-.351-1.351-.259-1.639.206-.648.478-1.454,1.008-1.891-.165-.521-.321-.856-.659-1.306-.134-.181-.371-.275-.52-.473-.261-.344-.191-.878-.842-1.076-1.192,1.461-1.356-.37-1.973-.622-.548-.225-1.867.29-2.247.006-.582-.433.614-.778.745-1.049.034-.07-.12-.162-.125-.253-.015-.241.253-.39-.131-.523-.197-.068-.619.333-.727.369-.188.067-2.289.276-2.519.254-1.308-.115,1.152-1.724,1.13-1.977-.451-.169-1.026-.424-1.444-.654-.149-.082-.22-.28-.32-.344-.058-.037-.147.124-.317.104-.262-.032-1.811-.29-1.88-.447.205-.795,1.007-1.044.78-2.027-.449-.335-.957-.453-1.425-.765-.539-.362-1.382-1.374-1.862-1.602-.536-.255-1.44.617-1.276-1.082-1.013-.785-2.202-1.269-3.266-1.963-1.132-.738-3.319-2.61-4.433-2.951-.098-.029-.187.105-.261.082-2.007-.613-3.689-2.308-5.719-2.817-.348-.086-1.127.066-1.59-.06-.289-.079-.483-.268-.744-.34-1.535-.417-5.682.427-7.193.966-.669.239-1.521.716-2.215.977-.479.18-.964.337-1.477.41,1.8,2.356-.551.795-1.615.366-.056.022.181.899.23,1.022.141.366.659.588.116.935-.206.079-1.243-.608-1.376-.887-.191.508-.565.469-1.008.615.031.503,1.314,1.072,1.263,1.472-.086.135-.041.191-.217.191-.519-.001-1.201-.448-1.679-.672-.115.417-1.436,1.124-.68,1.533.278.151,1.907.614.635.886-.424.089-1.258.006-1.574-.329-.014.508-.269.989-.345,1.468-.044.278.057.574.012.821-.208,1.188-.618,2.298-1.046,3.42-.001.074.49.422.549.45.074.034.082-.189.402.002,1.008.6,1.308,1.711,1.152,2.745.208-.071.417-.006.621.002l.182.583c-.076.08-.191-.088-.225-.079l-.269-.431c-.318.287-.632.358-.899.749l.642.261c.105-.208.246-.268.404-.389l.087.72.411-.2c-.359-.301.124-.394.444-.407.124-.006.257.14.277.136.091-.02.087-.363.154-.412.033-.023.726.059.784-.187h-.036ZM39.371,50.038l.06-.094c-.083-.009-.103.023-.06.094ZM39.6,49.786l.195.125.121-.188-.316.063ZM129.729,79.763l.196.125.12-.188-.195-.125-.121.189ZM133.465,80.29l.061-.094c-.083-.009-.103.023-.061.094Z" fill="#fff"/>
  <path d="M23.642,90.755c-.029-.192.305-.775.264-.999-.035-.189-.257-.239-.331-.389-.098-.195-.16-1.103.06-1.242l-1.596.777c-.181.034-.634.085-.635-.205-.003-.41,1.857-2.152,2.316-2.4.651-.35,1.333-.046,1.513-1.085.049-.292-.132-1.368-.193-1.73-.056-.322-.422-.672-.111-1.048l-.364.033c0-.619-.793-1.229-.903-1.715-.124-.546-.055-2.493.013-3.124.068-.631.106-1.287.508-1.789l.365.257c-.201.375.053.619.099.884.168,1.04.336,2.176.198,3.214l.224.732c.606-.92.612-1.879.797-2.915.076-.428.321-.928.354-1.305.045-.485-.351-1.562-.272-2.005.034-.186.279-.288.277-.521-.005-.572-1.518-.566-1.912-.8-.579-.343-.717-.928-.573-1.524.07-.292.443-1.466.779-1.378.427.117.239.361.309.545.102.266.108.494.123.521.052.101.771.932.831.927.041-.236.081-.469.084-.712.007-.513-.423-1.537.559-.875-.061.339.108.671.135.938.068.65-.335.882.615,1.275.509-.294.221-2.003.43-2.18.09-.075.237-.029.343.011.746.286-.201,1.635.97,1.819.142-.488.576-2.508.983-2.636l.347.021c.328.21-.136.958-.208,1.28-.068.3-.012.622-.099.924.85-.352,1.498-.989,1.212-1.979l.253-.219.311.028c.29.22.174.816.135,1.131-.002.026-.082.404-.09.439-.052.225-.361.62-.126.75.701-.317.862-1.249,1.498-1.707l.601.259c.034.141-1.022,1.157-.612,1.603.184-.26,1.156-1.559,1.432-1.477.557.312.006.559-.099.801-.258.591.287,1.021.232,1.234-.167.261-1.356,1.359-1.36,1.547-.002.036.162.161.148.333-.053.668-.36,1.06-.359,1.97-.002.241.168.482.108.72-.041.158-.219.227-.217.246.022.092.667.818.715,1.135.065.423-.388,1.076-.434,1.486-.034.312.248.414.267.566.023.168-.206.433-.184.614.036.33.833.852.922,1.094.037.102-.047.249-.045.38,0,.055.12.138.09.201-.106.232-.602.361-.597.591.073.411.393,1.17.44,1.521.018.137-.025,1.366-.069,1.423-.359.468-.606-.112-.833-.056-.168.042-.32.258-.508.342-.188.084-.545-.087-.723.385l.762,2.261c-.229.231-.267.616-.693.51-.427-.106-.208-.348-.279-.42-.209-.209-.807-.683-1.1-.506l.334.013c.184.717.349,2.592-.746,1.548l-.432-1.103c.058.313-.224.565-.263.765-.034.169-.053.613-.097.898-.016.113.267.416-.165.545-1.671-.211-1.002-2.057-1.357-3.142-.477.58-.388,1.403-.671,2.066-.09.212-.432.847-.684.782-1.024-.669-.188-1.734-.158-2.586.012-.333-.288-.389-.059-.603l.256.031-.146-.628c-.535.328-.565,1.044-.855,1.53-.205.342-1.865,2.276-2.039,1.106l-.014-.006Z" fill="#fff"/>
  <path d="M116.759,129.393c-.134.221-.154.756-.608.326.084-.406-.027-.647.462-.75l-.262-.192c.109-.22.374-1.728-.09-1.633-.316.295-1.519,1.983-1.81,1.974-.171-.004-.318-.088-.309-.273l.452-1.038-.333-.22-1.08.893c-.203-.062-.427-.215-.374-.437.303-.579.607-1.076,1.171-1.427-.641-.468-.6-.863-.369-1.539.058-.167.222-.253.288-.395.184-.399.005-.677.601-.923.355-.147.555.038.707.01.032-.007.588-.274.609-.301.071-.088.075-1.028.056-1.224-.021-.228-.233-.448-.195-.618.101-.439.78-1.081,1.134-1.382-1.947-.517-.164-1.29.437-1.992.449-.526.823-1.53,1.263-1.953.064-.061.223.061.249.013.245-.415.335-1.042.512-1.507.265-.695.584-1.431,1.133-2.091.635-.761,1.592-.445,1.734-.634.182-.241-.31-.841-.345-1.228-.014-.162.098-1.088.152-1.183.033-.057.887-.559,1.114-.765.298-.272.564-.511.745-.882l.339.21c-.075.504-.262,1.133-.304,1.634-.032.381.171.678-.03.954.706-.093,1.369-.925,2.116-.508-.362,1.086-1.596,1.761-1.209,3.084l2.135-1.47c.233-.116.971-.485,1.004.02l-2.121,2.769c.929.073,1.69-1.316,2.553-.76-.414.919-1.413,1.244-2.182,1.794.293-.061.581-.19.876-.226.334-.042,1.811-.23,2.009-.196.236.039.668.142.591.473-.224.929-2.332.558-2.528.998.009.742-.569,1.574.558,1.773l-.024.247c.479.095,1.047.373.851.912-.987.682-2.519,1.613-3.171,2.605-.336.51-.384,1.259-.665,1.702-.905,1.443-2.17,1.714-2.345,3.844-.014.171.085,1.032.035,1.061-.468.29-.732-1.149-1.317-1.173-.336.762-.129,1.688-.68,2.356l-1.537-1.912-.792,1.886-.291-.186c.176-.575.306-1.407.02-1.982-.303.49-.637.968-.936,1.464v-.002Z" fill="#fff"/>
  <path d="M93.657,146.739c-.305-.175-.495-.457-.666-.559-.058-.037-.153.117-.251.099-.209-.042-1.111-.367-1.188-.352-.273.057-.037.201.015.285.199.335,1.213,1.286,1.226,1.563-.179.76-.527.194-.592.19-.047-.003-.15.163-.334.13-.299-.052-.738-.381-1.105-.448-.173-.033-.163-.077-.257.132.43.565.638,1.15,1.249,1.588.173.407-1.093.367-1.335.314-.268-.056-.953-.228-.666-.517l-.451.048c.002,1.853-1.092.653-1.626-.253-.837.027-.768,1.929-.983,1.969-.74-.003-.739-2.314-1.039-2.258-.018.465-.519.696-.688,1.075-.168.379.136.942-.349,1.186-.184-.104-.248-.291-.317-.471-.053-.133-.286-1.116-.296-1.255-.03-.367.063-.722.292-1.008-.394-.031-.68.273-.992.468-.065.04-.211-.04-.226-.029-.047.035-.037.229-.129.329-.188.206-.505.426-.661.68-.043.068.293.167.034.345-1.107-.595-.149-1.821.151-2.633l.356-.099c-.197-.228-.795-.215-1.049-.143-.403.117-.868.749-1.303.368.339-.811.671-1.674,1.621-1.888-.141-.387-1.5.103-1.748.148-1.01.181-.027-1.222.46-1.371-.025-.071-.703-.177-.832-.185-.385-.028-1.483.226-1.635-.184-.05-.645.838-1.034,1.375-1.167.129-.03.25.078.377.051.339-.076.483-.28.842-.228-.034-.692-.849-.601-1.278-1.018.289-.772,1.213-.726,1.902-.588.442-.548-.511-1.256-.065-1.611.249-.202,1.528.208,1.738.492.148-.685-.278-1.233.316-1.792.209.171.539.284.72.46.089.088.09.119.341.351.221.206.288.538.622.663.511-.694,1.057-1.227,1.096-2.155.354.175.216-.349.526-.259.502.148.329.711.42,1.017.031.101.205.199.234.32.059.262.14,1.648.259,1.766,1.201.469,1.469-.469,2.184-1.184,1.009.356.813,2.076.211,2.719.572.138,2.067-.537,2.259.246.122.493-.544,1.065-.919,1.305-.085.055-.236-.045-.27.008-.153.239-.015.559-.545.636.037.136.614-.009.696-.032.538-.156,1.057-.526,1.728-.41l-.716.992-.158-.162-.273.428c.501.188.834.22,1.294.562l-.122.395.65.596-.13.329v.004Z" fill="#fff"/>
  <path d="M71.578,40.569c-.02-.449.719-.456.979-.596,1.824-.991,3.308-1.306,5.396-1.809.087-.019.175-.174.298-.201.899-.201,2.024.437,2.792.396.31-.016.509-.233.762-.285.203-.041,1.817-.312,1.916-.306.559.038,4.244,1.196,4.818,1.454.322.144.955.75,1.412.991.457.241.948.313,1.374.552.215-.009.132-.073.165-.197.112-.412-.071-.904.215-1.275.281.003.47.062.768.015.543-.086,1.359-.748,1.667-.136l.181-.272c.095-.017,1.464.76,1.815.814.244.037.447-.191.639-.194.566-.006,1.752.525,2.429.621.605.087,1.673.103,2.319.169.218.024,1.101.129,1.197.211l.028.293.296-.325c1.735,1.021-1.338,1.595-2.063,1.945-.6-.074-1.023-.566-1.56-.793-.446-.187-1.37-.223-1.941-.462-1.079-.455-.742-.475-1.986-.695-.304-.055-.583-.298-.897-.288-.158.004-1.18.359-1.163.509.165.047.4.678.39.783-.028.265-.303.501-.287.597.007.045.215.168.273.314.051.131-.066.336.021.425.294.297.98.667,1.353,1.028.485.467,1.025,1.33,1.574,1.725.401.29,1.072.505,1.503.866.377.316.246.427.908.905.503.363.988.754,1.52,1.077l.067.237-.359.352c-.06,0-.181-.231-.29-.294-1.459-.811-3.134-1.014-4.527-1.986-.914-.636-.507-.61-.916-1.219-.27-.401-.765-.582-1.07-.94-.23-.27-.088-.519-.347-.832-.677-.814-1.989-1.83-2.973-2.218-.201-.078-.45-.015-.601-.078-.888-.367-1.657-1.06-2.617-1.228l-.025-.292c-.149.337-.388-.04-.651-.12-.458-.14-1.052-.343-1.501-.453-.067-.016-1.052-.002-1.291-.042-.88-.144-1.522-.106-2.437.004-1.053.127-1.673-.141-2.715-.096-1.236.054-1.493.4-2.461.816-.824.355-2.088.425-2.988.69-.993.294-1.987.754-2.867,1.196-.301.151-1.127.607-1.167.023-.034-.498,1.451-1.009,1.877-1.217.265-.127.31-.517.747-.179l.002.019ZM93.615,43.232l.29.186.121-.189-.293-.188-.121.188.003.002Z" fill="#fff"/>
  <path d="M59.619,137.85l.15-.466c.589-.219.736.307.986.491.925.68,2.34.175,3.353,1.011.19.156.201.377.459.525.352.201,1.619.252,2.181.418.285.084.488.298.758.389.328.111,2.976.33,3.341.272.483-.076,1.084-.447,1.786-.407.334.02.829.306,1.264.145l.145.287c-.768.721-1.814,1.019-2.859,1.024l.083-.345c-.118.156-.27.423-.478.46-.294.05-1.479-.068-1.808-.128-1.251-.231-2.595-.792-3.843-1.15-1.176-.337-1.188-.352-2.272-.861-.72-.338-1.653-.553-2.167-1.097l-.242.124-.833-.692h-.004Z" fill="#fff"/>
  <path d="M56.757,138.244c-.094-.152-.223-.735-.368-.954-.751-1.113-2.436-1.633-.76-3.053.565.171.472.687.687.848.166.127.41.061.568.288.136.196.061.573.118.766.138.459,1.572,2.973,1.864,3.19.648.479,2.035.767,2.482,1.234.065.069-.054.234-.006.269.145.099.463.01.713.173.303.194.373.538.887.768.338.151.926.17,1.197.31.428.219.896.876,1.537.972.188-.173,1.306.345,1.327.461l-.305.35c-.759-.387-1.573-.38-2.377-.642-1.118-.361-2.116-.907-3.106-1.551-1.39-.903-3.545-1.964-4.456-3.429Z" fill="#fff"/>
  <path d="M47.763,85.422c-.027-.096-.051-.782-.05-.938.006-.871.266-2.155.253-2.909-.002-.179-.16-.296-.164-.479-.017-.681,1.469-1.893,1.832-2.549l.13.178.189-.114.405.405.179-.158-.009.246.629.287c-.166,1.171-1.858,1.447-2.269,2.3-.189.39-.323,1.543-.286,1.999.014.172.242.655.238.738-.005.235-.141-.056-.047.494.072.434.033.766-.124,1.177-.391.087-.811-.335-.907-.675l.002-.002Z" fill="#fff"/>
  <path d="M13.128,90.889c-.072-.274-.334-.588-.308-1.048.027-.429.319-.692.343-.934.006-.064-.215-.498-.208-.674.024-.717.505-.79.629-1.259.087-.329-.53-.901-.21-1.506.086-.163.312-.277.392-.464.506.33.433.992.584,1.483.054.17.287.313.272.525-.025.376-.391.512-.565.772-.27.406-.064.929-.122,1.423-.035.298-.332,1.193-.321,1.258.016.102.429.495.386.938-.017.17-.215.353-.249.539-.019.113.104.196.097.263-.103.945-.32,1.6.548,2.386-.305.428-.55.424-1.011.14-1.221-.754.006-2.832-.258-3.838l.002-.002Z" fill="#fff"/>
  <path d="M127.037,125.022l.226.039c.486-.915.876-1.85,1.378-2.806.567-.025,1.077-1.016,1.741-.575.058.163-1.402,1.646-1.464,1.909-.027.109.222.591.121.959-.181.674-1.442,1.498-2.068,1.786-.139.064-.339-.033-.42.038-.131.117-.373.677-.44.688l-.417-.287c-.364-.42,1.282-1.342,1.341-1.754l.002.002Z" fill="#fff"/>
  <path d="M40.851,95.611c-.101-.174-.431-.613-.442-.651-.025-.094.071-.244.068-.365-.002-.178-.31-.151.122-.412h-.414c.28-.259.016-.384-.023-.61-.137-.785-.618-2.713.158-3.163.045-.026,1.001-.129,1.058-.103.398.183-.345,1.887-.338,2.351.006.344.125,1.274.161,1.676.068.728.113,1.393.464,2.064-.56.169-.636-.475-.818-.782l.003-.005Z" fill="#fff"/>
  <path d="M20.73,81.136c-.154-.527-.123-.94.246-1.368.193.069-.025.171,0,.238.014.039.217.03.298.147.115.169.05.668.261.763,1.426-.28.178-1.184.155-1.375-.009-.074.197-.296.227-.498.083-.516-.166-1.607.05-2.055.049-.105.282-.231.27-.273-.009-.03-.21-.086-.256-.191-.053-.122-.019-1.02.357-.939.376.08.117.375.165.626.226,1.237.115,1.759.202,2.921.043.569.399,1.249.13,1.792-.256.51-1.137.519-1.559.974-.441-.112-.451-.445-.544-.763l-.002.002Z" fill="#a35cff"/>
  <path d="M1.718,74.748c-.054-.76.3-1,1.043-.902l.096.048-.073.225.314-.065c-.051.063-.123.153-.053.232.812.89,2.2,1.244,3.243,1.795.149.313,1.192.82,1.164,1.091-.022.217-.286.066-.403.028-1.107-.34-2.546-.903-3.466-1.243-.615-.226-1.222-.955-1.866-1.214v.004ZM4.573,75.532l.06-.094c-.083-.009-.103.023-.06.094Z" fill="#fff"/>
  <path d="M11.146,82.354c.035.006.118-.135.191-.106.591.225.595,1.981.744,2.559l-.28.134-1.96-2.139c-.459-.375-1.488-.523-1.461-1.207.331-1.198,2.118.66,2.768.759l-.003-.002Z" fill="#fff"/>
  <path d="M8.91,75.113l-.361.045c-.451-.223-1.358-1.052-1.529-1.515-.062-.169.046-.342-.081-.559-.268-.454-1.039-.501-.908-.972.212-.773,1.292-.154,1.65.249.197.218.251.899.436,1.147.356.483,1.219.939,1.485,1.269.091.112-.003.27.035.366.071.182.421.12.062.462l-.914-.173.133-.313-.007-.005Z" fill="#fff"/>
  <path d="M140.869,131.263c-.03-.125-.04-.441.021-.541l.38-.158c.334.047.475.518.737.638.099.043.987.107,1.083.063.348-.169.512-.701.714-1,.567.267,1.038,1.178.428,1.595-.574.395-1.78.066-2.403.41-.324-.255-.871-.621-.964-1.005h.004Z" fill="#fff"/>
  <path d="M141.949,143.307l.18-.283c-.196-.228-.334-.085-.353-.093-.405-.211-.179-.455-.286-.581-.216-.258-.542-.582-.723-.813-.494-.636-.981-1.284-1.482-1.914l.245-.521.075.313c.244.255.216-.1.461.019,1.225.593,1.297,1.486,1.88,2.435.189.308.491.641.718.966l-.521.599c-.064-.034-.136-.08-.196-.125l.002-.002Z" fill="#fff"/>
  <path d="M135.217,146.137c-.016-.024-.228-.538-.233-.568-.181-.779-.174-.883-.495-1.712-.082-.209-.014-.414-.076-.583-.24-.637-1.189-.914-.438-1.74.463.143.26.401.447.688,1.013,1.56.705,1.411,1.229,2.968.092.281,1.067,1.717.628,1.808-.395-.239-.802-.465-1.059-.858l-.003-.002Z" fill="#fff"/>
  <path d="M.611,78.179c.045-.628.691-1.015,1.122-.473l.246-.363c.162.062.313.146.493.152.154.003,1.021-.11,1.072-.091.553.19.912,1.346.641,1.826-.074.133-.264.181-.367.071.096-.653-.713-1.011-1.274-1.152-.463-.116-1.299.633-1.932.027l-.002.002Z" fill="#fff"/>
  <path d="M123.475,128.005c-.04-.196.144-.378.174-.553.018-.101-.117-.177-.094-.251.018-.056.591-.963.632-1.005.037-.041.61-.148.62.07.133.555.126.813-.136,1.339.521.252.914-.263,1.339.06.051.23-.957.889-1.186.933-.304.061-1.27-.213-1.348-.589v-.004Z" fill="#fff"/>
  <path d="M141.511,135.903c-.01-.067-.12-.128-.088-.172.316-.329.734-.307,1.108-.03l-.279.22c.204.256.265-.066.379-.023.447.163.481.474.676.633.195.159.639.222.79.587-1.051,1.472-1.002.789-1.811-.178-.369-.44-.669-.357-.78-1.04l.005.003Z" fill="#fff"/>
  <path d="M133.415,139.093c.052.24.004.85.114,1.043.177.314.891.856.504,1.3-.081.016-1.069-1.035-1.197-1.198-.578-.737-.301-2.844.384-1.971.125.169-.049.347-.026.504.023.158.204.239.221.322Z" fill="#fff"/>
  <path d="M125.974,140.18c.159.204-.154.722-.022.946.242.472,1.254.349,1.057.938-.638.092-1.083.179-1.617-.333-.857-.82.015-2.271.582-1.551ZM125.684,141.55l-.12.188.095.061.12-.188-.095-.061Z" fill="#fff"/>
  <path d="M144.064,138.6c-.014-.088-.172-.161-.041-.278,1.082-.575,1.899.904,1.476,1.802-.583-.342-1.313-.857-1.435-1.524Z" fill="#fff"/>
  <path d="M75.652,83.616c.05-.039.088-.182.12-.188.036-.007.151.161.225.079l-.182-.583c1.027.03.983-.001,1.99.34-.058.245-.751.163-.784.187-.064.051-.063.392-.154.412-.02.004-.153-.142-.277-.136-.322.012-.804.109-.444.407l-.411.2-.087-.72.003.002Z" fill="#b3f6d3"/>
  <path d="M.247,79.649c.003-.076.357-.895.406-.905.639.222.272.63.326.838.048.191.48.293.349.792-.279,1.061-1.089-.451-1.079-.727l-.002.002Z" fill="#a9f5cd"/>
  <path d="M84.051,121.838c-.058.085-.298.317-.407.278-.235-.13-.436-.313-.647-.475-.149-.116-.384-.018-.145-.304.804.372.594-.039.732-.063.302-.052.133.521.466.564Z" fill="#a35cff"/>
  <path d="M93.657,146.739l.129-.329-.65-.596.122-.395c.414.309,1.082.971.596,1.443-.068-.037-.129-.086-.195-.125l-.002.002Z" fill="#b3f6d3"/>
  <path d="M142.145,143.432l.521-.599c.118.168.297.336.413.52.005.534-.613.241-.933.077v.002Z" fill="#bcf7d8"/>
  <path d="M46.152,110.104c.285-.457.42-.358.619-.537.938.583-.067.73-.619.537Z" fill="#bcf7d8"/>
  <path d="M141.948,143.307c-.175-.129-.364-.138-.173-.376.018.011.16-.133.354.093l-.181.283Z" fill="#bcf7d8"/>
  <path d="M82.853,121.342c-.74-.34-1.516-1.055-1.416.408.049.729.466.458.929.884.198.181.195.513.416.654.258.165.8-.074.982.26.182.334-.503,1.289-.71,1.585-.081.115-.318.243-.311.26.059.184.38.168.273.811-.217,1.301-1.186,1.44-2.303,1.104-.203.091-.625,1.435-1.035,1.762-.116.093-.29-.005-.425.041-.408.141-.682.105-.734.126-.111.041-.3.37-.491.486-.451.28-1.16.113-1.517.66-.153.239-.134.541-.381.812-.06.067-.794.496-.857.507-.182.03-.309-.153-.549-.13-.368.034-1.385.602-1.789.748-.156.057-.644.201-.778.139-.071.216.244.231.254.564.007.27-.19.485-.216.686-.016.119.115.196.097.334-.025.171-.419.787-.563.787-1.386-1.23-.8-.219-1.499.433-.099.093-.238-.152-.297.028l.265.238c-.346.861-1.168.087-1.583.149-.215.033-.381.458-.733.573-.394.13-.951-.05-1.332-.188-.361.14-.117,2.563-1.45.411-.082-.042-.368.156-.524.179-.286.038-2.777.039-2.91-.023-.17-.082-.251-.276-.415-.361-.78-.4-1.662-.638-2.325-1.225-.288.153-.437.705-.836.528-.577-.253.177-1.68-.589-1.98-.802,1.281-.629.071-.828-.125-.321-.321-1.482.942-1.722,1.162-1.205-.076-.036-1.579.209-2.133l-1.398.573c-.327-.118-1.166-.011-1.204-.504-.02-.289,1.655-.749,1.629-1.354-1.238-.655-2.406,1.066-3.671-.088l.212-.331.325.143c-.08-.405,1.523-.912,1.492-1.041-.516-.214-3.216-.021-3.366-.559.74-1.008,2.289-.408,3.21-1.137-.053-.17-1.889-.344-2.241-.507-.428-.199-.751-.637-.997-1.026-.034-.815,1.832-.02,2.203-.191.195-.09.287-.371.411-.537-.616-.23-1.198-.463-1.742-.845-.372-.258-1.186-.84-.717-1.265.428-.387.952.395,1.368.143.217-.13-.078-.237-.154-.296-.643-.486-1.367-.874-.878-1.76.35.149.627.374.979.099.31-.241,1.336-1.321,1.526-1.629.333-.543-.317-1.626-.904-1.834l-.079.344c-.25-.089-.747-.097-1.017-.078-.27.018-.539.34-.951-.142-.439-.512,1.037-1.985,1.512-2.192.073-.032,1.398-.386,1.478-.389.271-.01,1.063.237,1.27.063.187-.265-.004-.524.136-.832.132-.29.731-.823.813-1.05.045-.125-.208-.255-.258-.42-.05-.165.061-.465-.014-.696-.2-.604-.461-.318-.821-.352-.405-.035-.929.022-1.102-.266-1.098.302-2.243.441-3.34.764-.365.107-.859.216-1.085.498l-.289-.178c.412-.799,1.029-1.344,1.76-1.846.093-.063.514-.335.638-.412.609-.366,1.27-.638,1.884-.991-.024-.189-.984-.555-1.181-.595-.06-.011-1.054.051-1.18.066-1.097.146-2.066.728-3.147.938l-.331-.311c.036-.144.142-.25.215-.37.552.193,1.557.046.619-.537.309-.272.344-.654.644-.957.184-.189,1.2-.577,1.174-.808-1.26.164-2.678-.579-3.83-.06-.145-.045-.222-.2-.181-.33.18-.579,2.412-1.528,3.058-1.683.255-.062.493.009.683-.091l-2.734-.686c-.043-.232.989-.845,1.226-.939.571-.224,1.045.035,1.571-.197-.31-.294-1.819-.646-1.255-1.235.435-.454,3.514-.302,4.28-.687-.853-.484-1.687-.688-2.354-1.461-.247-.288-.242-.594.122-.766.252-.118,1.612-.123,2.095-.253.447-.119,1.283-.381,1.322-.884-.137-.145-.15.146-.286.093-.036-.016-.622-.398-.647-.424-.061-.059.026-.184.006-.214-.036-.06-.292.014-.093-.236-.596.191-1.437.021-1.607-.708.106-.348,2.237-.316,2.65-.487-1.366-.83-2.638-2.106-1.53-3.623.479-.014,1.238.737,1.578.526-1.125-1.577-.388-2.934,1.145-.929.54-.723-.108-1.55-.05-2.336.031-.436.328-2.071.911-1.17.077.117.292,1.3.196,1.483.364.641.729,1.086,1.5,1.262.31-.132-.12-.934-.16-1.158-.164-.898-.047-.789.211-1.513.029-.084-.136-.169-.111-.251.124-.377.829-1.08,1.179-.556.279.42.074,2.226.985,2.564.19-.038.904-2.601,1.903-1.816.227.213-.106,1.74.064,2.203.108.29.453.457.53.785,1.124-.139,1.196-1.444,1.703-2.144.453-.626.46.093.556.219.096.126.303.078.393.214.027.041.131.823.165.957.03.118.108.648.243.608l1.085-1.879.236-.053.329.204c-.31.363-.021.623-.004.889.046.652.121,1.136.149,1.756.009.162-.054.255.163.336.265-.675.542-1.318,1.219-1.658.303-.153.685-.038.84-.484l.424.414c-.22.261-.388,1.148-.396,1.514-.004.239.299,1.417.451,1.527.84.194,1.015-.542,1.546-1.037.021-.021.395-.302.42-.32.482-.318.811-.407,1.356-.065-.821.704-1.032,1.41-.964,2.457.012.164-.146.233.139.341.651-.853.555-1.902,1.377-2.738.371-.375,2.005-.886,2.552-.87,1.427.045.435.762-.149,1.133-.079.052-.212-.033-.274.026-.338.325-.567,1.295-.326,1.691.207.34.302-.556.354-.652.243-.468,1.221-.788,1.675-.58.315.143-.133.776-.139.82-.001.03.109.117.106.194-.007.292-.068,1.383.354,1.397,1.086-.074,1.518-3.08,2.585-1.656-.837.949-1.054,1.627-.215,2.701.447-.616,1.275-.795,1.828-1.196.146-.107.23-.326.393-.443.633-.449,1.175-.804,2.019-.571.104.186-.015.283-.06.425-.308.984-.887,2.006-1.428,2.879.966.87,1.814-.511,2.542-.638.422-.074,1.084.217,1.538.191-.239.218.036.264.002.488-.054.377-.511.616-.255.879l-.379.156.137.227c-.208.231-1.222,1.07-1.132,1.328.206-.062.915.21.96.195.085-.028.126-.246.251-.316.075-.04,1.593-.271,1.722-.267.259.009.555.12.779.257.472.482-.634,1.075-1,1.243-.572.264-1.272.143-1.59.801,1.059.565,1.904-.011,2.899.864.691.605.049.957-.101,1.661.411.307.775,1.047,1.181,1.29.3.178,1.029-.023,1.037.323.006.235-.957.872-1.182.97-.371.161-1.249-.234-1.32.48l1.934,1.118c.704-.05,1.03-1.19,1.592-.384-.047.974-.478,1.482-1.415,1.737-.206.058-1.143.042-1.131.294.463.851,1.287,1.058,2.092,1.474.051.213-1.294.919-1.556.942-.5.048-.846-.384-1.32-.323.057.231.104.601.296.764.034.029.716.448.76.469.308.143.886.001,1.204.409-.606,1.444-2.153-.042-3.188.024.018.729.605.982,1.046,1.513.06.072.27.346.327.427.361.486.373.633-.023,1.119-.265-.309-.683-.175-.952-.333-.455-.267-.876-1.044-1.481-1.363-.408-.213-.665-.037-.954-.127-.202-.065-.286-.459-.627.13-.286.498.864,1.118,1.097,1.494.602.981-2.031.039-1.783-.548-.4.306-.942-.572-1.472-.676-.253-.09-.81.786-.76,1.083.399.139.472.67.551.768.14.168.393.463.541.618.188.198.668.237.412.532l.276-.099c.211.333.677.719.807,1.074.089.248.013.417.025.656.01.211.256.147-.01.535-.333-.043-.164-.616-.466-.564-.139.024.075.436-.733.063l.004.006ZM65.768,136.616l.195.125.12-.188-.195-.125-.12.188ZM56.667,123.222l-.502-.59-.399.31c-.148.501.704.743.901.276v.004ZM47.455,106.018l.06-.094c-.083-.009-.103.023-.06.094Z" fill="#fff"/>
  <path d="M75.651,83.616c-.158.12-.299.18-.404.388l-.642-.261c.268-.387.584-.461.899-.749l.269.431c-.032.007-.071.149-.12.188l-.002.002Z" fill="#aef6d0"/>
  <path d="M129.729,79.764l.195.125.121-.188-.196-.125-.12.188Z" fill="#fefefe"/>
  <path d="M133.466,80.29c-.043-.072-.023-.103.06-.095l-.06.095Z" fill="#fefefe"/>
  <path d="M56.667,123.222c-.195.464-1.049.221-.901-.277l.399-.31.502.59v-.004Z" fill="#f5fdf9"/>
  <path d="M65.767,136.617l.196.125.12-.188-.196-.125-.121.188Z" fill="#fefefe"/>
  <path d="M47.454,106.019c-.043-.072-.023-.103.061-.095l-.061.095Z" fill="#fefefe"/>
  <path d="M4.572,75.531c-.043-.072-.023-.103.061-.095l-.061.095Z" fill="#fefefe"/>
  <path d="M125.562,141.74l.096.061.12-.188-.095-.061-.121.188Z" fill="#fefefe"/>
  <path d="M62.33,112.89c-.08-.262.382-1.972.539-2.212.457-.698,2.092-1.304,2.927-.953.836.351,1.545.882,1.667,1.768.188,1.39-.535,2.681-1.878,3.153-.096.034-1.06.149-1.147.141-.52-.054-1.107-.528-1.454-.913-.113-.127-.621-.874-.653-.979v-.004ZM64.112,112.695c.039.525.756.994,1.15.688,1.232-.955.434-3.12-.787-1.885-.206.205-.382.913-.362,1.195l-.002.002Z" fill="#a35cff"/>
  <path d="M60.541,117.855c-.22-.832.814-2.41,1.684-2.269.55.09,1.539,1.073,1.967,1.493.091.089.107.286.226.376.185.142.571.052.996.365.966.71.57,1.546-.345,2.009-.851.43-1.403-.182-2.088-.696l-1.131.128c-.559-.33-1.132-.744-1.309-1.406Z" fill="#a35cff"/>
  <path d="M61.607,84.337c-.066-.134-.291-.203-.353-.382-.019-.053-.19-.847-.228-1.024-.113-.525-.07-2.305.069-2.815.031-.11.2-.202.2-.247-.002-.195-.288-.821-.165-1.161.068-.195.271-.263.329-.399.219-.524.343-1.156.706-1.7.53-.795,1.376-1.394,2.357-.951.567.257,1.388.84,2.008,1.141.399.194,1.337.174,1.071.828l.313-.065.015.408c.21-.731,1.091-.375,1.682-.089.591.286,1.118.616,1.697.86.926.391,1.96.532,2.725,1.297.018.298-.075.582-.112.871-.238,1.846-.701,4.372-1.277,6.295-.395,1.313-1.105,1.169-2.312.969-1.384-.228-3.135-.916-4.315-1.33-.819-.289-2.657-.872-3.301-1.329-.199-.141-.206-.329-.343-.424-.188-.131-.521-.125-.73-.389-.094-.118.006-.285-.031-.36l-.004-.006ZM62.566,82.826c-.021.221-.217.45-.219.663-.008.577,1.525,1.057,2.01,1.227l-.059.231.138.099c.533-.221,1.351.435,1.899.649.939.372,1.996.619,3.055.98.513.175.97.532,1.578.532.199-.09.436-1.273.509-1.591.176-.745.187-1.198.19-1.938.006-.793.677-1.644.803-2.632.042-.331-.2-.72.087-1.047l-2.411-.5c-.928-.57-2.299-.847-3.369-1.3-.198-.083-.41-.154-.623-.174l-.021-.272c-.198.353-.873-.337-1.245-.517-.821-.396-1.323-.472-1.811.363-.44.754-.662,2.947-.705,3.892-.012.278.209,1.165.192,1.335h.004Z" fill="#6e00fe"/>
  <path d="M63.413,114.229c.801-.39,2.479-.225,3.387-.22.421.004.961-.056,1.389-.095l-.028.248c.494-.065.805.249,1.134.392,1.654.717,2.689,1.104,4.037,2.443.717.714,1.197,1.559-.249,1.495-.41-.017-1.763-.365-1.853-.344-.062.015-.112.197-.187.214-.082.023-.388-.139-.578-.145-1.843-.052-3.462.087-5.279-.568-.351-.126-1.22-.545-1.496-.77-.415-.334-.688-1.155-1.204-1.492-.135-.342.646-1.02.931-1.158h-.004ZM64.699,114.738c-.099.509-1.488.349-1.25.866.547.438,1.206.914,1.86,1.169,1.328.519,3.671.568,5.053.661.555.038.733-.052,1.361.125.123.034.222.21.257.212.047,0,.636-.254.855-.226-.659-.401-1.151-.951-1.848-1.314-.418-.22-.999-.36-1.459-.552-.424-.176-.714-.232-.916-.307-1.534-.562-1.67-.36-3.236-.337-.216.001-.465-.284-.6.011l-.073-.312-.003.005Z" fill="#6e00fe"/>
  <path d="M59.993,115.185l-.223.327c-.126-.289-.251.006-.483-.006-.818-.047-1.627-1.041-2.03-1.687-.403-.646-1.538-1.777-2.168-2.66-.281-.394-.643-.558-1.007-.855-.547-.448-.554-.658-.766-1.266.034-.203.742-.342.941-.355,1.315-.085,2.945.311,4.042,1.043.424.282,2.194,1.778,2.441,2.143.177.259.075.436.157.567.39.627,1.06,1.154.669,2.025-.563.151-1.402-1.846-1.737-2.245-.535-.628-2.536-1.945-3.29-2.291-.41-.187-1.405-.35-1.845-.258.967.891,1.855,1.888,2.721,2.871.966,1.098.982,1.53,2.347,2.369.098.062.2.267.233.282v-.004ZM60.068,111.51l.06-.094c-.083-.009-.103.023-.06.094Z" fill="#6e00fe"/>
  <path d="M67.371,128.685c-.448.353-.337-.6-.226-.74.055-.07.3.205.354-.111-.182-.256-.607-.272-.745-.344-.138-.071-.257-.178-.391-.25-.068-.037-.127-.088-.196-.125-.712-.384-1.31-.62-1.82-1.324-.099-.138-.005-.306-.039-.359-.19-.288-.602-.467-.594-.911.037-2.278,2.02-.131,2.754.229,1.058.517,2.065.521,3.156.65.135.015.209.198.254.2.086.004.255-.272.427-.098.169.166-.515,1.407-.622,1.73l-.12.189c-.051.035-.121.018-.218.126l-.293-.188c-.024.209-.134.391.112.47l.098.063c-.06.094-.12.188-.181.283l.492.314c-.16.245-.214.329-.461.505l-.293-.188-.083.345c-.031-.006-.058-.047-.098-.062-.099-.039-.194-.138-.293-.188-.003-.067-.042-.514-.052-.564l.129.014.15-.234-.196-.125c.029-.012.034-.087.06-.094.026-.007.381.227.474-.095l-.411.002c.174-.144-.016-.378-.174-.374-.04.002-.077.159-.121.184-.077.043-.14.053-.218.126-.225.203-.469.381-.484.756-.04.063-.075.129-.12.188h-.007ZM69.199,128.523l.06-.094c-.083-.009-.103.023-.06.094ZM64.929,124.73c.141.928,1.421,1.849,2.276,2.058.436.108,1.714-.089,1.795-.646.229-.01.382.414.509.05-.22-.27-.538-.021-.715-.097-.083-.036-.174-.22-.186-.218-.04.012-.081.248-.247.254-.224.013-.635-.233-.868-.289-.871-.207-.603-.212-1.307-.574-.388-.2-.896-.256-1.258-.546l.002.008Z" fill="#6e00fe"/>
  <path d="M53.814,121.61l-.418-.203.042.36-.648-.279c-.01-.078.772-1.075.902-1.19.076-.064.23.055.276,0,.259-.294.001-1.068.472-1.087.757.331,1.511.698,2.256,1.058.456.22.799.392,1.416.493.208.034.292-.219.776.03.987.506.101.946-.448,1.259-1.086.616-2.997,1.201-3.999.094l-.627,1.196c-1.117-.452-.608-1.131,0-1.729l.002-.002ZM54.81,121.406c.196.234.718.541,1.027.565.057.006,1.046-.039,1.1-.052.325-.078.45-.522.8-.213l.188-.261c-.235-.246-.268.07-.529.032-.821-.12-1.759-.536-2.502-.905-.181.085-.151.755-.085.834Z" fill="#6e00fe"/>
  <path d="M65.727,122.76c-.007-.117-.142-.22-.127-.425.038-.578.551-1.088,1.049-1.341.28-.145.545-.029.691-.086.099-.039.157-.223.187-.231.102-.016.292.272.409.327.201.094.884-.15.571.29l.22-.101c.329-.045,1.094,1.598,1,1.95-.446,1.669-2.244,1.836-3.516.791-.665-.545-.44-.561-.483-1.177v.004ZM66.87,122.779c.457.368,1.116.598,1.4-.034-.447-.395-1-.37-1.4.034Z" fill="#6e00fe"/>
  <path d="M55.33,117.847c-.101-.616-.039-1.104.407-1.564.562-.58.974-.545,1.737-.39.221.046.136.312.635.079-.232.264.162.305.278.477.743,1.092.627,2.576-.844,2.878-.134.027-.261-.061-.386-.06-.085,0-.181.112-.259.107-.798-.068-1.448-.813-1.563-1.527h-.004ZM56.88,117.065c-.143.031-.324.562-.287.736l.057.159c.411.263.836-.01,1.005-.412-.26-.146-.41-.171-.319-.473-.142.233-.386-.026-.455-.012v.002Z" fill="#6e00fe"/>
  <path d="M51.939,99.354c-.019-.026.044-.146-.009-.217-.359-.505-.706-.768-.355-1.429.799.004,1.076.593,1.669.914.593.321,1.329.193,1.835.925l-.27.406c-.148.143-.383-.085-.471-.059-.104.029-.155.303-.376.334-.421.061-1.776-.516-2.027-.874h.004Z" fill="#6e00fe"/>
  <path d="M79.432,111.829c.776.129,1.567.107,2.342.255.202.037.361.159.528.202.104.026.558-.205.755.306.042.541-.824.974-1.283.895-.205-.033-.373-.218-.511-.228-.08-.007-.235.19-.419.174-.167-.015-.349-.25-.562-.325-.73-.262-2.04-.412-.851-1.276l.002-.002Z" fill="#6e00fe"/>
  <path d="M79.139,114.638c-.064-.038-.686-.446-.725-.474-.323-.251-1.58-1.341-.531-1.357.552-.008.779.406,1.124.562.472.217,1.033.34,1.466.546.518.25,1.682.756.985,1.338-.343.288-1.917-.389-2.32-.615Z" fill="#6e00fe"/>
  <path d="M82.464,103.356c.033.021.065.042.098.062.569.337,2.585,1.068,2.803,1.517.183.382-.412.738-.689.73-.045-.002-.773-.212-.846-.245-.349-.162-1.046-.74-1.409-1.017-.451-.339-.636-.917.043-1.045l.002-.002Z" fill="#6e00fe"/>
  <path d="M80.459,123.835c-.126-.251-.236-.781-.37-1.034-.264-.499-.876-.686-.361-1.252.593-.026.867.572,1.161.831.192.17.537.282.71.536.117.17-.072.455.29.557l-.19.12c.258.271.172.515.122.837-.255-.088-.347.146-.525.185-.435.1-.665-.446-.831-.777l-.005-.003Z" fill="#6e00fe"/>
  <path d="M61.574,126.308c.099.646.392,1.868-.687,1.29.269-.199-.065-.699-.288-.848l-.183.414-.497-.073c-.293-.708-.239-1.664.364-2.177.569-.48.856.711.543,1.052l.687-.075c.261.095.045.349.058.418l-.129-.014-.15.234.095.061.181-.283h.007ZM60.711,126.685l.06-.094c-.083-.009-.103.023-.06.094ZM59.974,125.683l.06-.094c-.083-.009-.103.023-.06.094Z" fill="#6e00fe"/>
  <path d="M60.152,100.177c.019-.124-.157-.434.233-.685.971.134,1.288.974,1.776,1.725-.18,1.304-1.695.618-2.076-.323-.083-.207.03-.495.062-.716h.004Z" fill="#6e00fe"/>
  <path d="M55.973,94.928c.342.505,1.187.923.49,1.515-1.108-.024-1.938-.831-2.032-1.905l.382.043-.106-.265.657-.387c.273-.029.551.911.61.996l-.225-.079.104.268.121-.188-.002.002Z" fill="#6e00fe"/>
  <path d="M73.381,105.091c-.014-.022-.112-.487-.106-.514.04-.134.275-.209.271-.259-.008-.203-.421-.507.275-.849l-.132-.197.649-.589.129.174.182-.119c1.004,1.088.229,1.729-.606,2.533l-.34-.204-.073.219c-.095-.061-.191-.099-.256-.201l.007.005Z" fill="#6e00fe"/>
  <path d="M71.948,103.779c-.091.027-.32-.041-.403-.094-.887-.547.217-2.544,1.155-2.165,1.011.408-.317,2.136-.752,2.259Z" fill="#6e00fe"/>
  <path d="M57.607,94.19c-.145-.338-.14-.781.087-1.081.214.13.68.152.848.27.056.039-.042.198.013.267.275.36,1.258,1.414.931,1.858-.263.356-.788.105-1.115-.124-.079-.054-.704-1.053-.762-1.189l-.002-.002Z" fill="#6e00fe"/>
  <path d="M54.355,97.966c-.385-.232-1.292-1.46-1.046-1.884l.358-.244c.39-.057,1.64,1.28,1.726,1.632.168.666-.518.809-1.038.497Z" fill="#6e00fe"/>
  <path d="M81.741,101.278c-.003-.322.657-.563.936-.702.095-.048.257.024.344-.018.515-.253.759-.822,1.595-.351-.088.397-.155.585-.577.693l.168.179c-.281.44-2.464.936-2.466.2Z" fill="#6e00fe"/>
  <path d="M80.628,100.431c.145-.227.237-.57.416-.762.179-.192.328-.059.397-.124.134-.122.17-.327.373-.462.234-.156.934-.107,1.167.076l.102.416c-.581.5-1.806,1.902-2.454.854v.002Z" fill="#6e00fe"/>
  <path d="M78.679,109.711c-.041-.091.343-.608.441-.678.098-.07.222.023.338-.053.762-.49,1.157-1.085,1.981-.153.043.187-.685.917-.925.961-.076.013-.201-.105-.26-.091-.509.127-1.06.432-1.577.013l.003.002Z" fill="#6e00fe"/>
  <path d="M80.854,97.299c.078-.028.496.004.575.123.508.536-.682,1.896-1.299,1.838l-.251.575-.55-.212c.107-.238.101-.484.22-.724.098-.203,1.205-1.564,1.305-1.599Z" fill="#6e00fe"/>
  <path d="M82.464,103.355c-.381-.233-1.074-.724-.471-1.098.065-.04,1.388-.11,1.555-.095.329.027.663.09.968.238-.042,1.215-1.313.562-1.954,1.017-.033-.021-.065-.042-.098-.062Z" fill="#6e00fe"/>
  <path d="M68.971,132.253c.324-.147.883.956.994,1.218.072.169.003.339.052.503.088.298.455.199-.078.74-1.066-.161-1.837-1.668-.968-2.464l-.002.002Z" fill="#6e00fe"/>
  <path d="M63.391,128.661c.089-.747.121-1.686.75-2.216.246-.207.625-.087.72.233.096.32-.466,2-.816,2.143l-.654-.16Z" fill="#6e00fe"/>
  <path d="M58.291,131.657c1.03.08.468.738.397,1.279-.084.661.124,1.291.036,1.926-.199-.175-.271-.156-.464-.031-.203-.882-.66-1.46-.377-2.393.095-.314.229-.518.405-.783-.279-.022-.304.132-.495.204-.109.043-.28-.043-.333.001-.194.165.155.559-.253.832-.736-.147-.335-1.001-.052-1.432.338-.512.818-.522,1.353-.674l.339.377c-.094.301-.397.444-.56.687l.003.006Z" fill="#6e00fe"/>
  <path d="M74.195,106.413c-.173-.526,1.741-1.865,2.157-.969.209.535-.522.987-.955,1.156-.362.14-1.042.297-1.202-.187Z" fill="#6e00fe"/>
  <path d="M79.903,111.028c.116-.198.236-.397.412-.55.032-.027.693-.371.731-.387.59-.215,2.248-.36,1.398.625-.215.247-1.718.559-2.042.498-.393-.071.406-.319-.062-.438l-.143.439-.293-.188Z" fill="#6e00fe"/>
  <path d="M58.637,124.428c.153-.25.367-.446.692-.425.162.029.331.212.307.37-.029.227-1.021,2.199-1.147,2.225-.577-.23-.547-.802-.35-1.276.063-.154.231-.24.29-.359.086-.173.129-.411.203-.534h.004Z" fill="#6e00fe"/>
  <path d="M63.029,98.694c.003-.06-.147-.124-.049-.277.121-.188.385-.36.55-.523.498-.253.806,1.087.772,1.267-.062.335-.378,1.144-.819.811-.521-.395-.484-.729-.456-1.275l.002-.002Z" fill="#6e00fe"/>
  <path d="M58.432,124.961c-.262-.242-.283.023-.404.201-.202.293-.377.606-.576.901-.638-.262-.269-.546-.188-.921.021-.105-.09-.268-.054-.396.069-.235.888-1.124,1.189-1.146.541-.039.21.567.238.826-.076.125-.119.363-.203.534Z" fill="#6e00fe"/>
  <path d="M62.641,128.179c-.773-.232-.251-2.458.596-2.396.577.175-.092,1.84-.303,2.192-.079.13-.052.236-.291.202l-.002.002Z" fill="#6e00fe"/>
  <path d="M64.226,135.486c0-.088-.182-.218-.178-.417.005-.283.45-1.527.656-1.572.44.196.476.808.401,1.196-.028.143-.186.218-.202.3-.096.449,0,.963-.353,1.33l-.47-.358c-.066-.162.145-.337.146-.482v.004Z" fill="#6e00fe"/>
  <path d="M70.482,131.636c.555-.111,1.574,1.439.967,1.786-.775.444-1.995-1.576-.967-1.786Z" fill="#6e00fe"/>
  <path d="M73.956,127.525c-.15-.317-.192-.732-.274-1.013-.093-.318-.539-.522.088-.911.193-.009,1.058,1.109,1.089,1.313.05.325-.147,1.24-.672.935-.134-.072-.171-.202-.231-.325Z" fill="#6e00fe"/>
  <path d="M78.729,98.016c-.237-.441.344-1.659.981-1.517,1.382.309-.478,2.455-.981,1.517ZM79.215,96.89l.06-.094c-.083-.009-.103.023-.06.094Z" fill="#6e00fe"/>
  <path d="M75.527,111.083c-.066-.587.125-.526.691-.368.384.106,1.22.402,1.056.89-.164.488-.768.428-1.198.276-.429-.152-.507-.4-.551-.795l.002-.002Z" fill="#6e00fe"/>
  <path d="M52.203,101.691c.312.104.34.402.523.597.183.195.658.23.414.534l.703.188c-.614,1.18-2.833-.293-1.642-1.316v-.002Z" fill="#6e00fe"/>
  <path d="M77.841,114.648l-.01.375.196.125c.168-.097.16-.228.365-.029l-.189.124.134.171c-.826.204-3.083-.471-1.735-1.386l1.238.622v-.002Z" fill="#6e00fe"/>
  <path d="M70.87,126.667c.322.093.067.281.144.422.079.153.316.202.336.365.034.267-.137,1.529-.392,1.646-1.066-.222-.489-1.848-.085-2.43l-.003-.002Z" fill="#6e00fe"/>
  <path d="M65.817,135.495c-.028-.062-.072-.938-.048-1.018.374-1.225,1.217-.158.984.279-.057.106-.249.191-.248.267s.335.381.171.76c-.207.473-.736.002-.859-.287Z" fill="#6e00fe"/>
  <path d="M72.843,127.177c.024.056.193.787.183.825-.053.204-.309.66-.579.59-.691-.323-.684-1.063-.373-1.638.311-.574.566-.244.769.223Z" fill="#6e00fe"/>
  <path d="M73.999,107.814c.026-.014.16.092.195.033l.065-.295c.53.397.667-.132,1.117-.007.523.144.876.437.365.833-.184.056-.442-.314-.585.147l-.073-.312c-.324.463-1.788-.017-1.081-.398h-.004Z" fill="#6e00fe"/>
  <path d="M56.374,125.375c-.903-.101-.336-2.342.196-2.135.465.682.231,1.54-.196,2.135Z" fill="#6e00fe"/>
  <path d="M52.477,100.897c-.025-.149.013-.308.095-.43l.173.376.238-.256c.381.25,1.717,1.353.667,1.427-.487.032-1.096-.684-1.17-1.116l-.003-.002Z" fill="#6e00fe"/>
  <path d="M63.201,134.293c.061.114-.006.888-.094,1.047-.163.304-.305-.181-.439.046l.451.156c-.833,1.081-.975-1.696-.32-1.515.13.035.338.151.402.267Z" fill="#6e00fe"/>
  <path d="M59.641,134.511c-.658-.192-.289-2.255.228-1.975.563.302-.008,1.581-.228,1.975Z" fill="#6e00fe"/>
  <path d="M54.269,123.821c-.01-.061-.103-.11-.074-.204.044-.152.395-.877.502-.918.903-.345.327,1.969-.296,1.551-.158-.101-.108-.273-.132-.429Z" fill="#6e00fe"/>
  <path d="M60.918,133.619l.42.177c.045.498.242.842-.012,1.323l-.266-.031.106.265c-.684-.063-.613-1.577-.25-1.736l.003.002Z" fill="#6e00fe"/>
  <path d="M71.386,131.251c.525-.655.564-.28,1.043-.045.089.043.233-.021.374.056.461.257.21.76-.109.768-.193.003-1.271-.598-1.305-.777l-.003-.002Z" fill="#6e00fe"/>
  <path d="M67.584,133.741c.597.276.826.957.436,1.473-.583-.281-.864-.964-.436-1.473Z" fill="#6e00fe"/>
  <path d="M65.318,128.272c-.048-.212.266-.715.312-.968.32.085.049.249.144.354.494.558.669.435.073,1.245-.042.01-.509-.547-.527-.633l-.002.002Z" fill="#6e00fe"/>
  <path d="M67.371,128.684c-.009.014.111.18-.122.313-.738.42-.277-1.168-.492-1.506.138.071.562.087.745.343-.054.316-.298.041-.354.111-.111.14-.222,1.093.226.74l-.003-.002Z" fill="#6e00fe"/>
  <path d="M59.76,114.903c.218-.136,1.268-.21,1.339.06-.248.471-.669.427-1.106.222-.036-.016-.134-.222-.233-.282Z" fill="#6e00fe"/>
  <path d="M69.565,128.491l-.491-.314c.06-.094.12-.188.181-.283.04-.063.172-.132.181-.283l.103.597.266-.095c-.08.126-.158.253-.241.377l.003.002Z" fill="#6e00fe"/>
  <path d="M67.976,127.739c-.063.198-.108.411-.228.589-.141.209-.247.155-.255.167.013-.373.257-.551.484-.756Z" fill="#6e00fe"/>
  <path d="M68.427,127.895l-.233-.282c.045-.026.082-.183.122-.184.16-.007.348.229.174.374l.411-.002c-.09.324-.446.089-.474.095Z" fill="#6e00fe"/>
  <path d="M68.283,128.334c-.004-.026-.225-.079-.163-.186.067-.077.156-.122.248-.161l.196.125-.15.234-.129-.014-.002.002Z" fill="#6e00fe"/>
  <path d="M69.155,127.832c-.246-.079-.137-.261-.112-.47l.293.188c-.071.077-.112.197-.181.283Z" fill="#6e00fe"/>
  <path d="M68.627,129.09l-.121.189-.246-.157c-.094-.074.075-.173.075-.221.099.05.195.148.293.188l-.002.002Z" fill="#6e00fe"/>
  <path d="M66.363,127.239l-.12.188-.145-.093.07-.22c.068.037.127.088.195.125Z" fill="#6e00fe"/>
  <path d="M68.725,129.152l.083-.345.293.188c-.102.071-.247.182-.376.158Z" fill="#6e00fe"/>
  <path d="M69.677,127.233c-.004.018.067.077.053.122-.041.114-.153.052-.173.066l.12-.188Z" fill="#6e00fe"/>
  <path d="M60.07,111.51c-.043-.072-.023-.103.061-.095l-.061.095Z" fill="#fefefe"/>
  <path d="M69.199,128.522c-.043-.072-.023-.103.061-.095l-.061.095Z" fill="#6e00fe"/>
  <path d="M61.575,126.307l-.181.283-.098-.063.151-.237.127.017Z" fill="#6e00fe"/>
  <path d="M59.975,125.683c-.043-.072-.023-.103.061-.095l-.061.095Z" fill="#fefefe"/>
  <path d="M60.712,126.685c-.043-.072-.023-.103.061-.095l-.061.095Z" fill="#fefefe"/>
  <path d="M79.214,96.891c-.043-.072-.023-.103.061-.095l-.061.095Z" fill="#fefefe"/>
  <path d="M66.641,84.723c-.021.027-.03.086-.061.084l-1.075-.435v-.242s-.185.151-.185.151l-1.982-1.033c-.131-.441.13-.734.155-1.143.056-.921-.242-2.091.206-2.918.682-1.259,1.689-.166,2.747-.306l.145.093-.07.221.267-.098-.023.251c.1-.239.766.04,1.026.125-.039.315.306.223.391.25.725.242.875.294,1.602.622.474.215,1.288.317,1.385.879.053.31-.062.638-.093.88l-.287.017-.09.14.293.188c-.062.368-.107.582-.19.944-.381-.138-.526.419-.79.158.187-.718-.034-1.356.329-2.04-.16-.126-.34-.248-.524-.335-.858-.399-1.995-.83-2.899-1.201l.072-.223-.172.159c-.289-.117-.667-.304-.97-.416-.367-.133-1.03.24-1.252-.208-.328.331-.099.757-.151,1.142-.074.525-.419,1.584-.274,2.092.145.508,2.489,1.422,3.128,1.82l-.12.188.145.093c.098.073.117-.122.171-.156.037-.024.063-.055.116-.049.086.014.163.104.24.144-.115.423-.634.102-.814.412-.132-.074-.266-.163-.391-.25.124-.149.376-.4.046-.502l-.437.252c.127.088.262.164.391.25h-.004Z" fill="#6e00fe"/>
  <path d="M67.032,84.972c.179-.308.699.011.814-.412.621.299,1.157.621,1.847.78.199-.411-.049-.845.061-1.289.054-.217.224-.384.256-.5.267.263.41-.299.79-.158-.094.417-.312.93-.36,1.264-.058.405.319.997-.091,1.358-.286-.238-.478.024-.711.001-.392-.039-.771-.364-1.086-.467-.513-.165-.889-.218-1.522-.582v.004Z" fill="#6e00fe"/>
  <path d="M70.99,82.451l-.293-.188.09-.14.287-.017c-.017.132-.064.238-.083.345Z" fill="#6e00fe"/>
  <path d="M67.791,79.474c.152.05.263.008.391.25-.085-.027-.43.065-.391-.25Z" fill="#6e00fe"/>
  <path d="M67.492,84.47c-.053.034-.072.229-.171.156l-.145-.093.12-.189c.065.042.13.083.196.125Z" fill="#6e00fe"/>
  <path d="M66.818,79.916l.172-.159-.072.223c-.036-.016-.065-.048-.098-.063l-.002-.002Z" fill="#6e00fe"/>
  <path d="M65.032,82.084c.186-.511.187-1.607,1.007-1.436.82.17,2.109.835,2.795,1.291.035.591.195,1.762-.699,1.579-.469-.096-2.999-1.105-3.104-1.433Z" fill="#6e00fe"/>
</svg>